<?xml version="1.0" encoding="utf-8"?>
<!-- Generator: Adobe Illustrator 18.0.0, SVG Export Plug-In . SVG Version: 6.00 Build 0)  -->
<!DOCTYPE svg PUBLIC "-//W3C//DTD SVG 1.1//EN" "http://www.w3.org/Graphics/SVG/1.1/DTD/svg11.dtd">
<svg version="1.1" id="Layer_1" xmlns="http://www.w3.org/2000/svg" xmlns:xlink="http://www.w3.org/1999/xlink" x="0px" y="0px"
	 viewBox="0 0 750 957" enable-background="new 0 0 750 957" xml:space="preserve">
<path fill="none" stroke="#E2E2E2" stroke-width="13" stroke-miterlimit="10" d="M445.3,726.9c0,0,0.8-167,0-245.2
	c-0.8-78.2-49.8-39.3-46.2-177.3"/>
<path fill="none" stroke="#E2E2E2" stroke-width="13" stroke-miterlimit="10" d="M398.8,300.3c0,0,0.8-53.7,0-131.9
	c-0.8-78.2-76.4-46.3-76.7-168"/>
<g>
	<g>
		<path fill="none" stroke="#FFFFFF" stroke-width="2" stroke-miterlimit="10" d="M398.8,300.3c0,0,0-0.9,0-2.5"/>
		<path fill="none" stroke="#FFFFFF" stroke-width="2" stroke-miterlimit="10" stroke-dasharray="5.0708,5.0708" d="M398.9,292.7
			c0.2-17.4,0.5-63.4-0.1-124.4c-0.8-77.1-74.3-47.2-76.7-163"/>
		<path fill="none" stroke="#FFFFFF" stroke-width="2" stroke-miterlimit="10" d="M322.1,2.8c0-0.8,0-1.7,0-2.5"/>
	</g>
</g>
<path fill="#BD9C2F" d="M106.7,287.8c3.1,0,6.3,0,9.5,0c0-0.7-0.7-1-1.2-1.1c0-4.3,0-8.6,0-13c0.8-0.3,1.6-1.1,1.6-2.1
	c0-3.7-0.1-7.5-0.1-11.3c0,0-0.1-0.5-0.7-0.7c0,0-1.7,0-3,0c0,0,0.2-1.2,0.3-3.1c0,0,0.4-2.3-1.8-2.3c-2.2,0-2,2.3-2,2.3
	c0.1,1.4,0.3,3.1,0.3,3.1c-1.3,0-3,0-3,0c-0.6,0.2-0.7,0.7-0.7,0.7c0,3.8-0.1,7.5-0.1,11.3c0,1,0.7,1.8,1.6,2.1c0,4.4,0,8.7,0,13
	c-0.5,0.2-1.2,0.4-1.2,1.1c3.1,0,6.3,0,9.5,0H106.7z"/>
<path fill="#BD9C2F" d="M122.6,287.8c3.1,0,6.3,0,9.5,0c0-0.7-0.7-1-1.2-1.1c0-4.3,0-8.6,0-13c0.8-0.3,1.6-1.1,1.6-2.1
	c0-3.7-0.1-7.5-0.1-11.3c0,0-0.1-0.5-0.7-0.7c0,0-1.7,0-3,0c0,0,0.2-1.2,0.3-3.1c0,0,0.4-2.3-1.8-2.3c-2.2,0-2,2.3-2,2.3
	c0.1,1.4,0.3,3.1,0.3,3.1c-1.3,0-3,0-3,0c-0.6,0.2-0.7,0.7-0.7,0.7c0,3.8-0.1,7.5-0.1,11.3c0,1,0.7,1.8,1.6,2.1c0,4.4,0,8.7,0,13
	c-0.5,0.2-1.2,0.4-1.2,1.1c3.1,0,6.3,0,9.5,0H122.6z"/>
<path fill="#BD9C2F" d="M588,287.8c3.1,0,6.3,0,9.5,0c0-0.7-0.7-1-1.2-1.1c0-4.3,0-8.6,0-13c0.8-0.3,1.6-1.1,1.6-2.1
	c0-3.7-0.1-7.5-0.1-11.3c0,0-0.1-0.5-0.7-0.7c0,0-1.7,0-3,0c0,0,0.2-1.2,0.3-3.1c0,0,0.4-2.3-1.8-2.3c-2.2,0-2,2.3-2,2.3
	c0.1,1.4,0.3,3.1,0.3,3.1c-1.3,0-3,0-3,0c-0.6,0.2-0.7,0.7-0.7,0.7c0,3.8-0.1,7.5-0.1,11.3c0,1,0.7,1.8,1.6,2.1c0,4.4,0,8.7,0,13
	c-0.5,0.2-1.2,0.4-1.2,1.1c3.1,0,6.3,0,9.5,0H588z"/>
<path fill="#BD9C2F" d="M603.9,287.8c3.1,0,6.3,0,9.5,0c0-0.7-0.7-1-1.2-1.1c0-4.3,0-8.6,0-13c0.8-0.3,1.6-1.1,1.6-2.1
	c0-3.7-0.1-7.5-0.1-11.3c0,0-0.1-0.5-0.7-0.7c0,0-1.7,0-3,0c0,0,0.2-1.2,0.3-3.1c0,0,0.4-2.3-1.8-2.3c-2.2,0-2,2.3-2,2.3
	c0.1,1.4,0.3,3.1,0.3,3.1c-1.3,0-3,0-3,0c-0.6,0.2-0.7,0.7-0.7,0.7c0,3.8-0.1,7.5-0.1,11.3c0,1,0.7,1.8,1.6,2.1c0,4.4,0,8.7,0,13
	c-0.5,0.2-1.2,0.4-1.2,1.1c3.1,0,6.3,0,9.5,0H603.9z"/>
<g>
	<g>
		<text transform="matrix(1 0 0 1 121.0469 140.7188)" fill="#3A3A3A" font-family="Arial Narrow" font-size="12.5">Taxi and cab drivers</text>
	</g>
	<g>
		<text transform="matrix(1 0 0 1 272.38 140.7188)" fill="#3A3A3A" font-family="Arial Narrow" font-size="12.5">12,635€</text>
	</g>
	<g>
		<text transform="matrix(1 0 0 1 121.0469 157.9931)" fill="#3A3A3A" font-family="Arial Narrow" font-size="12.5">Van drivers</text>
	</g>
	<g>
		<text transform="matrix(1 0 0 1 272.38 157.9929)" fill="#3A3A3A" font-family="Arial Narrow" font-size="12.5">23,142€</text>
	</g>
	<g>
		<text transform="matrix(1 0 0 1 121.0469 175.2672)" fill="#3A3A3A" font-family="Arial Narrow" font-size="12.5">Large goods vehicle drivers</text>
	</g>
	<g>
		<text transform="matrix(1 0 0 1 272.38 175.2672)" fill="#3A3A3A" font-family="Arial Narrow" font-size="12.5">27,580€</text>
	</g>
	<g>
		<text transform="matrix(1 0 0 1 121.0469 192.5415)" fill="#3A3A3A" font-family="Arial Narrow" font-size="12.5">Bus and coach drivers</text>
	</g>
	<g>
		<text transform="matrix(1 0 0 1 272.38 192.5417)" fill="#3A3A3A" font-family="Arial Narrow" font-size="12.5">31,859€</text>
	</g>
	<g>
		<text transform="matrix(1 0 0 1 121.0469 209.8159)"><tspan x="0" y="0" fill="#3A3A3A" font-family="Arial Narrow" font-size="12.5">Postal workers, mail sorters, </tspan><tspan x="0" y="15" fill="#3A3A3A" font-family="Arial Narrow" font-size="12.5">messengers and couriers</tspan></text>
	</g>
	<g>
		<text transform="matrix(1 0 0 1 272.38 209.8159)" fill="#3A3A3A" font-family="Arial Narrow" font-size="12.5">38,724€</text>
	</g>
	<text transform="matrix(1 0 0 1 121.0469 120.309)" fill="#BD9C2F" font-family="Arial Narrow" font-weight="700" font-size="16">TRANSPORT</text>
</g>
<g>
	<g>
		<text transform="matrix(1 0 0 1 417.6034 140.4341)"><tspan x="0" y="0" fill="#3A3A3A" font-family="Arial Narrow" font-size="12.5">Sales and retail assistants, cashiers and </tspan><tspan x="0" y="15" fill="#3A3A3A" font-family="Arial Narrow" font-size="12.5">checkout operators (incl. Shelf fillers)</tspan></text>
	</g>
	<g>
		<text transform="matrix(1 0 0 1 611.8722 140.4342)" fill="#3A3A3A" font-family="Arial Narrow" font-size="12.5">16,818€</text>
	</g>
	<g>
		<text transform="matrix(1 0 0 1 417.6034 174.984)" fill="#3A3A3A" font-family="Arial Narrow" font-size="12.5">Sales supervisors</text>
	</g>
	<g>
		<text transform="matrix(1 0 0 1 611.8722 174.601)" fill="#3A3A3A" font-family="Arial Narrow" font-size="12.5">22,719€</text>
	</g>
	<g>
		<text transform="matrix(1 0 0 1 417.6034 192.5337)" fill="#3A3A3A" font-family="Arial Narrow" font-size="12.5">Shopkeepers and proprietors </text>
	</g>
	<g>
		<text transform="matrix(1 0 0 1 611.8722 192.5337)" fill="#3A3A3A" font-family="Arial Narrow" font-size="12.5">24,002€</text>
	</g>
	<g>
		<text transform="matrix(1 0 0 1 417.6035 120.5835)" fill="#BD9C2F" font-family="Arial Narrow" font-weight="700" font-size="16">RETAIL</text>
	</g>
</g>
<g>
	<g>
		<text transform="matrix(1 0 0 1 121.4823 417.4883)" fill="#3A3A3A" font-family="Arial Narrow" font-size="12.5">Street cleaners</text>
	</g>
	<g>
		<text transform="matrix(1 0 0 1 282.8154 417.4883)" fill="#3A3A3A" font-family="Arial Narrow" font-size="12.5">13,509€</text>
	</g>
	<g>
		<text transform="matrix(1 0 0 1 121.4823 435.0467)" fill="#3A3A3A" font-family="Arial Narrow" font-size="12.5">Industrial cleaning occupations</text>
	</g>
	<g>
		<text transform="matrix(1 0 0 1 282.8154 435.0467)" fill="#3A3A3A" font-family="Arial Narrow" font-size="12.5">23,142€</text>
	</g>
	<g>
		<text transform="matrix(1 0 0 1 121.4823 396.4995)" fill="#BD9C2F" font-family="Arial Narrow" font-weight="700" font-size="16">SUPPORT SERVICES</text>
	</g>
	<g>
		<text transform="matrix(1 0 0 1 121.4823 483.738)" fill="#3A3A3A" font-family="Arial Narrow" font-size="12.5">Journalists</text>
	</g>
	<g>
		<text transform="matrix(1 0 0 1 282.8154 483.738)" fill="#3A3A3A" font-family="Arial Narrow" font-size="12.5">37,772€</text>
	</g>
	<g>
		<text transform="matrix(1 0 0 1 121.4823 501.2967)" fill="#3A3A3A" font-family="Arial Narrow" font-size="12.5">Biochemists</text>
	</g>
	<g>
		<text transform="matrix(1 0 0 1 282.8154 501.2967)" fill="#3A3A3A" font-family="Arial Narrow" font-size="12.5">46,915€</text>
	</g>
	<g>
		<text transform="matrix(1 0 0 1 121.4823 463.8503)" fill="#BD9C2F" font-family="Arial Narrow" font-weight="700" font-size="16">PROFESSIONALS, SCIENCE, ICT</text>
	</g>
	<g>
		<text transform="matrix(1 0 0 1 121.4823 548.011)" fill="#3A3A3A" font-family="Arial Narrow" font-size="12.5">Fire service officers</text>
	</g>
	<g>
		<text transform="matrix(1 0 0 1 282.8154 548.011)" fill="#3A3A3A" font-family="Arial Narrow" font-size="12.5">54,632€</text>
	</g>
	<g>
		<text transform="matrix(1 0 0 1 121.4823 565.5696)" fill="#3A3A3A" font-family="Arial Narrow" font-size="12.5">Police officers</text>
	</g>
	<g>
		<text transform="matrix(1 0 0 1 282.8154 565.5696)" fill="#3A3A3A" font-family="Arial Narrow" font-size="12.5">63,126€</text>
	</g>
	<g>
		<text transform="matrix(1 0 0 1 121.4823 522.8327)" fill="#BD9C2F" font-family="Arial Narrow" font-weight="700" font-size="16">PUBLIC ADMINISTRATION</text>
	</g>
</g>
<g>
	<rect x="364.3" y="511.3" fill="#FFFFFF" width="60.3" height="117.1"/>
	<path fill="#E0E1E1" d="M363.2,510.2c0,7.2,0,118.4,0,118.4h2.1V510.3L363.2,510.2z"/>
	<path fill="#E0E1E1" d="M422.4,510.2c0,7,0,118.5,0,118.5h2.1V510.3L422.4,510.2z"/>
	<path fill="#E0E1E1" d="M363.3,512.4c3.7,0,61.3,0,61.3,0l0-2.2h-61.3L363.3,512.4z"/>
	<polygon fill="#E0E1E1" points="383.6,538.2 394.4,538.2 394.4,524.2 383.6,524.2 383.6,525.3 393.4,525.3 393.4,537.2 
		384.7,537.2 383.6,537.2 	"/>
	<polygon fill="#E0E1E1" points="383.6,525.2 384.7,525.2 384.7,537.3 383.6,537.3 	"/>
	<polygon fill="#E0E1E1" points="385.8,526.4 392.3,526.4 392.3,536 385.8,536.1 	"/>
	<polygon fill="#E0E1E1" points="393.4,538.2 404.1,538.2 404.1,524.2 393.4,524.2 393.4,525.3 403.1,525.3 403.1,537.2 
		394.4,537.2 393.4,537.2 	"/>
	<polygon fill="#E0E1E1" points="393.4,525.2 394.4,525.2 394.4,537.3 393.4,537.3 	"/>
	<polygon fill="#E0E1E1" points="395.5,526.4 402,526.4 402,536 395.5,536.1 	"/>
	<polygon fill="#E0E1E1" points="403.1,538.2 413.8,538.2 413.8,524.2 403.1,524.2 403.1,525.3 412.8,525.3 412.8,537.2 
		404.1,537.2 403.1,537.2 	"/>
	<polygon fill="#E0E1E1" points="403.1,525.2 404.1,525.2 404.1,537.3 403.1,537.3 	"/>
	<polygon fill="#E0E1E1" points="405.2,526.4 411.7,526.4 411.7,536 405.2,536.1 	"/>
	<polygon fill="#E0E1E1" points="412.7,538.2 423.5,538.2 423.5,524.2 412.7,524.2 412.7,525.3 422.4,525.3 422.4,537.2 
		413.8,537.2 412.7,537.2 	"/>
	<polygon fill="#E0E1E1" points="412.7,525.2 413.8,525.2 413.8,537.3 412.7,537.3 	"/>
	<polygon fill="#E0E1E1" points="414.9,526.4 421.3,526.4 421.3,536 414.9,536.1 	"/>
	<polygon fill="#E0E1E1" points="412.7,551.1 423.5,551.2 423.5,537.2 412.7,537.2 412.7,538.2 422.5,538.2 422.5,550.1 
		413.8,550.1 412.7,550.1 	"/>
	<polygon fill="#E0E1E1" points="412.7,538.2 413.8,538.1 413.8,550.3 412.7,550.2 	"/>
	<polygon fill="#E0E1E1" points="414.9,539.3 421.4,539.3 421.4,549 414.9,549 	"/>
	<polygon fill="#E0E1E1" points="412.7,564.1 423.5,564.1 423.5,550.1 412.7,550.1 412.7,551.2 422.5,551.2 422.5,563 413.8,563 
		412.7,563 	"/>
	<polygon fill="#E0E1E1" points="412.7,551.1 413.8,551.1 413.8,563.2 412.7,563.2 	"/>
	<polygon fill="#E0E1E1" points="414.9,552.3 421.4,552.2 421.4,561.9 414.9,561.9 	"/>
	<polygon fill="#E0E1E1" points="412.7,577 423.5,577 423.5,563 412.7,563 412.7,564.1 422.4,564.1 422.4,575.9 413.8,575.9 
		412.7,575.9 	"/>
	<polygon fill="#E0E1E1" points="412.7,564 413.8,564 413.8,576.1 412.7,576.1 	"/>
	<polygon fill="#E0E1E1" points="414.9,565.2 421.3,565.2 421.3,574.8 414.9,574.8 	"/>
	<polygon fill="#E0E1E1" points="412.7,589.9 423.5,589.9 423.5,576 412.7,575.9 412.7,577 422.4,577 422.4,588.9 413.8,588.9 
		412.7,588.9 	"/>
	<polygon fill="#E0E1E1" points="412.7,576.9 413.8,576.9 413.8,589 412.7,589 	"/>
	<polygon fill="#E0E1E1" points="414.9,578.1 421.3,578.1 421.3,587.8 414.9,587.8 	"/>
	<polygon fill="#E0E1E1" points="412.7,602.8 423.5,602.9 423.5,588.9 412.7,588.9 412.7,589.9 422.5,589.9 422.5,601.8 
		413.8,601.8 412.7,601.8 	"/>
	<polygon fill="#E0E1E1" points="412.7,589.9 413.8,589.8 413.8,601.9 412.7,601.9 	"/>
	<polygon fill="#E0E1E1" points="414.9,591 421.4,591 421.4,600.7 414.9,600.7 	"/>
	<polygon fill="#E0E1E1" points="412.7,615.7 423.5,615.8 423.5,601.8 412.7,601.8 412.7,602.8 422.4,602.8 422.4,614.7 
		413.8,614.7 412.7,614.7 	"/>
	<polygon fill="#E0E1E1" points="412.7,602.8 413.8,602.7 413.8,614.9 412.7,614.8 	"/>
	<polygon fill="#E0E1E1" points="414.9,603.9 421.3,603.9 421.3,613.6 414.9,613.6 	"/>
	<polygon fill="#E0E1E1" points="412.7,628.7 423.5,628.7 423.5,614.7 412.7,614.7 412.7,615.8 422.5,615.8 422.5,627.7 
		413.8,627.7 412.7,627.7 	"/>
	<polygon fill="#E0E1E1" points="412.7,615.7 413.8,615.7 413.8,627.8 412.7,627.8 	"/>
	<polygon fill="#E0E1E1" points="414.9,616.9 421.4,616.9 421.4,626.5 414.9,626.6 	"/>
	<polygon fill="#E0E1E1" points="403,628.7 413.8,628.7 413.8,614.7 403,614.7 403,615.8 412.7,615.8 412.7,627.6 404.1,627.6 
		403,627.6 	"/>
	<polygon fill="#E0E1E1" points="403,615.7 404.1,615.7 404.1,627.8 403,627.8 	"/>
	<polygon fill="#E0E1E1" points="405.2,616.9 411.6,616.8 411.6,626.5 405.2,626.5 	"/>
	<polygon fill="#E0E1E1" points="403.1,615.7 413.9,615.7 413.9,601.8 403.1,601.7 403.1,602.8 412.8,602.8 412.8,614.7 
		404.2,614.7 403.1,614.7 	"/>
	<polygon fill="#E0E1E1" points="403.1,602.7 404.2,602.7 404.1,614.8 403.1,614.8 	"/>
	<polygon fill="#E0E1E1" points="405.3,603.9 411.7,603.9 411.7,613.6 405.3,613.6 	"/>
	<polygon fill="#E0E1E1" points="403,602.8 413.8,602.8 413.8,588.9 403,588.8 403,589.9 412.7,589.9 412.7,601.8 404.1,601.8 
		403,601.8 	"/>
	<polygon fill="#E0E1E1" points="403,589.8 404.1,589.8 404.1,601.9 403,601.9 	"/>
	<polygon fill="#E0E1E1" points="405.2,591 411.7,591 411.7,600.7 405.2,600.7 	"/>
	<polygon fill="#E0E1E1" points="403.1,589.9 413.8,589.9 413.8,575.9 403.1,575.9 403.1,577 412.8,577 412.8,588.9 404.1,588.9 
		403.1,588.9 	"/>
	<polygon fill="#E0E1E1" points="403.1,576.9 404.1,576.9 404.1,589 403.1,589 	"/>
	<polygon fill="#E0E1E1" points="405.2,578.1 411.7,578.1 411.7,587.7 405.2,587.8 	"/>
	<polygon fill="#E0E1E1" points="403,577 413.8,577 413.8,563 403,563 403,564.1 412.7,564.1 412.7,576 404.1,576 403,576 	"/>
	<polygon fill="#E0E1E1" points="403,564 404.1,564 404.1,576.1 403,576.1 	"/>
	<polygon fill="#E0E1E1" points="405.2,565.2 411.7,565.2 411.7,574.8 405.2,574.9 	"/>
	<polygon fill="#E0E1E1" points="403.1,564.1 413.8,564.1 413.8,550.1 403.1,550.1 403.1,551.2 412.8,551.2 412.8,563 404.1,563 
		403.1,563 	"/>
	<polygon fill="#E0E1E1" points="403.1,551.1 404.1,551.1 404.1,563.2 403.1,563.2 	"/>
	<polygon fill="#E0E1E1" points="405.2,552.3 411.7,552.2 411.7,561.9 405.2,561.9 	"/>
	<polygon fill="#E0E1E1" points="403,551.1 413.8,551.2 413.8,537.2 403,537.2 403,538.2 412.7,538.2 412.7,550.1 404.1,550.1 
		403,550.1 	"/>
	<polygon fill="#E0E1E1" points="403,538.2 404.1,538.1 404.1,550.3 403,550.2 	"/>
	<polygon fill="#E0E1E1" points="405.2,539.3 411.7,539.3 411.7,549 405.2,549 	"/>
	<polygon fill="#E0E1E1" points="393.3,551.1 404.1,551.2 404.1,537.2 393.3,537.2 393.3,538.2 403.1,538.2 403.1,550.1 
		394.4,550.1 393.3,550.1 	"/>
	<polygon fill="#E0E1E1" points="393.3,538.2 394.4,538.1 394.4,550.3 393.3,550.2 	"/>
	<polygon fill="#E0E1E1" points="395.5,539.3 402,539.3 402,549 395.5,549 	"/>
	<polygon fill="#E0E1E1" points="393.4,564.1 404.1,564.1 404.1,550.1 393.4,550.1 393.4,551.2 403.1,551.2 403.1,563 394.4,563 
		393.4,563 	"/>
	<polygon fill="#E0E1E1" points="393.4,551.1 394.4,551.1 394.4,563.2 393.4,563.2 	"/>
	<polygon fill="#E0E1E1" points="395.5,552.3 402,552.2 402,561.9 395.5,561.9 	"/>
	<polygon fill="#E0E1E1" points="393.4,577 404.1,577 404.1,563 393.4,563 393.4,564.1 403.1,564.1 403.1,576 394.4,576 393.4,576 	
		"/>
	<polygon fill="#E0E1E1" points="393.4,564 394.4,564 394.4,576.1 393.4,576.1 	"/>
	<polygon fill="#E0E1E1" points="395.5,565.2 402,565.2 402,574.8 395.5,574.9 	"/>
	<polygon fill="#E0E1E1" points="393.4,589.9 404.1,589.9 404.1,576 393.4,575.9 393.4,577 403.1,577 403.1,588.9 394.4,588.9 
		393.4,588.9 	"/>
	<polygon fill="#E0E1E1" points="393.4,576.9 394.4,576.9 394.4,589 393.4,589 	"/>
	<polygon fill="#E0E1E1" points="395.5,578.1 402,578.1 402,587.8 395.5,587.8 	"/>
	<polygon fill="#E0E1E1" points="393.3,602.8 404.1,602.9 404.1,588.9 393.3,588.9 393.3,589.9 403.1,589.9 403.1,601.8 
		394.4,601.8 393.3,601.8 	"/>
	<polygon fill="#E0E1E1" points="393.3,589.9 394.4,589.8 394.4,601.9 393.3,601.9 	"/>
	<polygon fill="#E0E1E1" points="395.5,591 402,591 402,600.7 395.5,600.7 	"/>
	<polygon fill="#E0E1E1" points="393.4,615.8 404.1,615.8 404.1,601.8 393.4,601.8 393.4,602.9 403.1,602.9 403.1,614.7 
		394.4,614.7 393.4,614.7 	"/>
	<polygon fill="#E0E1E1" points="393.4,602.8 394.4,602.8 394.4,614.9 393.4,614.9 	"/>
	<polygon fill="#E0E1E1" points="395.5,604 402,603.9 402,613.6 395.5,613.6 	"/>
	<polygon fill="#E0E1E1" points="393.4,628.7 404.1,628.7 404.1,614.7 393.4,614.7 393.4,615.8 403.1,615.8 403.1,627.6 
		394.4,627.6 393.4,627.6 	"/>
	<polygon fill="#E0E1E1" points="393.4,615.7 394.4,615.7 394.4,627.8 393.4,627.8 	"/>
	<polygon fill="#E0E1E1" points="395.5,616.9 402,616.8 402,626.5 395.5,626.5 	"/>
	<polygon fill="#E0E1E1" points="383.6,551.1 394.4,551.1 394.4,537.2 383.6,537.1 383.6,538.2 393.3,538.2 393.3,550.1 
		384.7,550.1 383.6,550.1 	"/>
	<polygon fill="#E0E1E1" points="383.6,538.1 384.7,538.1 384.7,550.2 383.6,550.2 	"/>
	<polygon fill="#E0E1E1" points="385.8,539.3 392.2,539.3 392.2,549 385.8,549 	"/>
	<polygon fill="#E0E1E1" points="383.6,564.1 394.4,564.1 394.4,550.1 383.6,550.1 383.6,551.1 393.3,551.1 393.3,563 384.7,563 
		383.6,563 	"/>
	<polygon fill="#E0E1E1" points="383.6,551.1 384.7,551 384.7,563.2 383.6,563.1 	"/>
	<polygon fill="#E0E1E1" points="385.8,552.2 392.2,552.2 392.2,561.9 385.8,561.9 	"/>
	<polygon fill="#E0E1E1" points="383.6,577 394.4,577 394.4,563 383.6,563 383.6,564.1 393.3,564.1 393.3,576 384.7,576 383.6,576 	
		"/>
	<polygon fill="#E0E1E1" points="383.6,564 384.7,564 384.7,576.1 383.6,576.1 	"/>
	<polygon fill="#E0E1E1" points="385.8,565.2 392.2,565.2 392.2,574.8 385.8,574.9 	"/>
	<polygon fill="#E0E1E1" points="383.6,589.9 394.4,589.9 394.4,576 383.6,575.9 383.6,577 393.4,577 393.4,588.9 384.7,588.9 
		383.6,588.9 	"/>
	<polygon fill="#E0E1E1" points="383.6,576.9 384.7,576.9 384.7,589 383.6,589 	"/>
	<polygon fill="#E0E1E1" points="385.8,578.1 392.3,578.1 392.3,587.8 385.8,587.8 	"/>
	<polygon fill="#E0E1E1" points="383.6,602.8 394.4,602.9 394.4,588.9 383.6,588.9 383.6,589.9 393.4,589.9 393.4,601.8 
		384.7,601.8 383.6,601.8 	"/>
	<polygon fill="#E0E1E1" points="383.6,589.9 384.7,589.8 384.7,601.9 383.6,601.9 	"/>
	<polygon fill="#E0E1E1" points="385.8,591 392.3,591 392.3,600.7 385.8,600.7 	"/>
	<polygon fill="#E0E1E1" points="383.6,615.8 394.4,615.8 394.4,601.8 383.6,601.8 383.6,602.9 393.4,602.9 393.4,614.7 
		384.7,614.7 383.6,614.7 	"/>
	<polygon fill="#E0E1E1" points="383.6,602.8 384.7,602.8 384.7,614.9 383.6,614.9 	"/>
	<polygon fill="#E0E1E1" points="385.8,604 392.3,603.9 392.3,613.6 385.8,613.6 	"/>
	<polygon fill="#E0E1E1" points="383.6,628.7 394.4,628.7 394.4,614.8 383.6,614.7 383.6,615.8 393.3,615.8 393.3,627.7 
		384.7,627.7 383.6,627.7 	"/>
	<polygon fill="#E0E1E1" points="383.6,615.7 384.7,615.7 384.7,627.8 383.6,627.8 	"/>
	<polygon fill="#E0E1E1" points="385.8,616.9 392.2,616.9 392.2,626.6 385.8,626.6 	"/>
	<polygon fill="#E0E1E1" points="383.6,525.3 394.4,525.3 394.4,511.3 383.6,511.3 383.6,512.4 393.4,512.4 393.4,524.2 
		384.7,524.2 383.6,524.2 	"/>
	<polygon fill="#E0E1E1" points="383.6,512.3 384.7,512.3 384.7,524.4 383.6,524.4 	"/>
	<polygon fill="#E0E1E1" points="385.8,513.5 392.3,513.5 392.3,523.1 385.8,523.1 	"/>
	<polygon fill="#E0E1E1" points="374,525.3 384.7,525.3 384.7,511.3 374,511.3 374,512.4 383.7,512.4 383.7,524.3 375.1,524.3 
		374,524.3 	"/>
	<polygon fill="#E0E1E1" points="374,512.3 375.1,512.3 375,524.4 374,524.4 	"/>
	<polygon fill="#E0E1E1" points="376.2,513.5 382.6,513.5 382.6,523.1 376.2,523.2 	"/>
	<polygon fill="#E0E1E1" points="364.3,525.3 375,525.3 375,511.3 364.3,511.3 364.3,512.4 374,512.4 374,524.2 365.3,524.2 
		364.3,524.2 	"/>
	<polygon fill="#E0E1E1" points="364.3,512.3 365.3,512.3 365.3,524.4 364.3,524.4 	"/>
	<polygon fill="#E0E1E1" points="366.4,513.5 372.9,513.5 372.9,523.1 366.4,523.1 	"/>
	<polygon fill="#E0E1E1" points="364.3,538.2 375.1,538.2 375.1,524.2 364.3,524.2 364.3,525.3 374,525.3 374,537.2 365.4,537.2 
		364.3,537.2 	"/>
	<polygon fill="#E0E1E1" points="364.3,525.2 365.4,525.2 365.3,537.3 364.3,537.3 	"/>
	<polygon fill="#E0E1E1" points="366.5,526.4 372.9,526.4 372.9,536 366.5,536.1 	"/>
	<polygon fill="#E0E1E1" points="364.3,551.1 375.1,551.2 375.1,537.2 364.3,537.2 364.3,538.2 374,538.2 374,550.1 365.4,550.1 
		364.3,550.1 	"/>
	<polygon fill="#E0E1E1" points="364.3,538.2 365.4,538.1 365.3,550.3 364.3,550.2 	"/>
	<polygon fill="#E0E1E1" points="366.5,539.3 372.9,539.3 372.9,549 366.5,549 	"/>
	<polygon fill="#E0E1E1" points="374,538.2 384.7,538.2 384.7,524.2 374,524.2 374,525.3 383.7,525.3 383.7,537.2 375,537.2 
		374,537.2 	"/>
	<polygon fill="#E0E1E1" points="374,525.2 375,525.2 375,537.3 374,537.3 	"/>
	<polygon fill="#E0E1E1" points="376.1,526.4 382.6,526.4 382.6,536 376.1,536.1 	"/>
	<polygon fill="#E0E1E1" points="374,551.1 384.7,551.2 384.7,537.2 374,537.2 374,538.2 383.7,538.2 383.7,550.1 375,550.1 
		374,550.1 	"/>
	<polygon fill="#E0E1E1" points="374,538.2 375,538.1 375,550.3 374,550.2 	"/>
	<polygon fill="#E0E1E1" points="376.1,539.3 382.6,539.3 382.6,549 376.1,549 	"/>
	<polygon fill="#E0E1E1" points="374,564.1 384.7,564.1 384.7,550.1 374,550.1 374,551.2 383.7,551.2 383.7,563 375,563 374,563 	
		"/>
	<polygon fill="#E0E1E1" points="374,551.1 375,551.1 375,563.2 374,563.2 	"/>
	<polygon fill="#E0E1E1" points="376.1,552.3 382.6,552.2 382.6,561.9 376.1,561.9 	"/>
	<polygon fill="#E0E1E1" points="374,577 384.7,577 384.7,563 374,563 374,564.1 383.7,564.1 383.7,576 375,576 374,576 	"/>
	<polygon fill="#E0E1E1" points="374,564 375,564 375,576.1 374,576.1 	"/>
	<polygon fill="#E0E1E1" points="376.1,565.2 382.6,565.2 382.6,574.8 376.1,574.9 	"/>
	<polygon fill="#E0E1E1" points="374,589.9 384.7,589.9 384.7,575.9 374,575.9 374,577 383.7,577 383.7,588.9 375.1,588.9 
		374,588.9 	"/>
	<polygon fill="#E0E1E1" points="374,576.9 375.1,576.9 375,589 374,589 	"/>
	<polygon fill="#E0E1E1" points="376.2,578.1 382.6,578.1 382.6,587.7 376.2,587.8 	"/>
	<polygon fill="#E0E1E1" points="374,602.8 384.7,602.8 384.7,588.9 374,588.8 374,589.9 383.7,589.9 383.7,601.8 375,601.8 
		374,601.8 	"/>
	<polygon fill="#E0E1E1" points="374,589.8 375,589.8 375,601.9 374,601.9 	"/>
	<polygon fill="#E0E1E1" points="376.1,591 382.6,591 382.6,600.7 376.1,600.7 	"/>
	<polygon fill="#E0E1E1" points="374,615.8 384.7,615.8 384.7,601.8 374,601.8 374,602.9 383.7,602.9 383.7,614.7 375,614.7 
		374,614.7 	"/>
	<polygon fill="#E0E1E1" points="374,602.8 375,602.8 375,614.9 374,614.9 	"/>
	<polygon fill="#E0E1E1" points="376.1,604 382.6,603.9 382.6,613.6 376.1,613.6 	"/>
	<polygon fill="#E0E1E1" points="374,628.7 384.7,628.7 384.7,614.7 374,614.7 374,615.8 383.7,615.8 383.7,627.7 375,627.7 
		374,627.7 	"/>
	<polygon fill="#E0E1E1" points="374,615.7 375,615.7 375,627.8 374,627.8 	"/>
	<polygon fill="#E0E1E1" points="376.1,616.9 382.6,616.9 382.6,626.5 376.1,626.6 	"/>
	<polygon fill="#E0E1E1" points="364.3,564.1 375.1,564.1 375.1,550.1 364.3,550.1 364.3,551.2 374,551.2 374,563 365.4,563 
		364.3,563 	"/>
	<polygon fill="#E0E1E1" points="364.3,551.1 365.4,551.1 365.3,563.2 364.3,563.2 	"/>
	<polygon fill="#E0E1E1" points="366.5,552.3 372.9,552.2 372.9,561.9 366.5,561.9 	"/>
	<polygon fill="#E0E1E1" points="364.3,577 375,577 375,563 364.3,563 364.3,564.1 374,564.1 374,575.9 365.3,575.9 364.3,575.9 	
		"/>
	<polygon fill="#E0E1E1" points="364.3,564 365.3,564 365.3,576.1 364.3,576.1 	"/>
	<polygon fill="#E0E1E1" points="366.4,565.2 372.9,565.2 372.9,574.8 366.4,574.8 	"/>
	<polygon fill="#E0E1E1" points="364.3,589.9 375.1,589.9 375.1,576 364.3,575.9 364.3,577 374,577 374,588.9 365.4,588.9 
		364.3,588.9 	"/>
	<polygon fill="#E0E1E1" points="364.3,576.9 365.4,576.9 365.3,589 364.3,589 	"/>
	<polygon fill="#E0E1E1" points="366.5,578.1 372.9,578.1 372.9,587.8 366.5,587.8 	"/>
	<polygon fill="#E0E1E1" points="364.3,602.8 375.1,602.9 375.1,588.9 364.3,588.9 364.3,589.9 374,589.9 374,601.8 365.4,601.8 
		364.3,601.8 	"/>
	<polygon fill="#E0E1E1" points="364.3,589.9 365.4,589.8 365.3,601.9 364.3,601.9 	"/>
	<polygon fill="#E0E1E1" points="366.5,591 372.9,591 372.9,600.7 366.5,600.7 	"/>
	<polygon fill="#E0E1E1" points="364.3,615.8 375.1,615.8 375.1,601.8 364.3,601.8 364.3,602.9 374,602.9 374,614.7 365.4,614.7 
		364.3,614.7 	"/>
	<polygon fill="#E0E1E1" points="364.3,602.8 365.4,602.8 365.3,614.9 364.3,614.9 	"/>
	<polygon fill="#E0E1E1" points="366.5,604 372.9,603.9 372.9,613.6 366.5,613.6 	"/>
	<polygon fill="#E0E1E1" points="364.3,628.7 375.1,628.7 375.1,614.7 364.3,614.7 364.3,615.8 374,615.8 374,627.6 365.4,627.6 
		364.3,627.6 	"/>
	<polygon fill="#E0E1E1" points="364.3,615.7 365.4,615.7 365.3,627.8 364.3,627.8 	"/>
	<polygon fill="#E0E1E1" points="366.5,616.9 372.9,616.8 372.9,626.5 366.5,626.5 	"/>
	<polygon fill="#E0E1E1" points="393.4,525.3 404.1,525.3 404.1,511.3 393.4,511.3 393.4,512.4 403.1,512.4 403.1,524.3 
		394.4,524.3 393.4,524.3 	"/>
	<polygon fill="#E0E1E1" points="393.4,512.3 394.4,512.3 394.4,524.4 393.4,524.4 	"/>
	<polygon fill="#E0E1E1" points="395.5,513.5 402,513.5 402,523.1 395.5,523.2 	"/>
	<polygon fill="#E0E1E1" points="403,525.3 413.8,525.3 413.8,511.3 403,511.3 403,512.4 412.7,512.4 412.7,524.3 404.1,524.3 
		403,524.3 	"/>
	<polygon fill="#E0E1E1" points="403,512.3 404.1,512.3 404.1,524.4 403,524.4 	"/>
	<polygon fill="#E0E1E1" points="405.2,513.5 411.7,513.5 411.7,523.1 405.2,523.2 	"/>
	<polygon fill="#E0E1E1" points="414.9,513.5 421.4,513.5 421.4,523.1 414.9,523.2 	"/>
</g>
<g>
	<g>
		<text transform="matrix(1 0 0 1 471.27 418.0414)" fill="#3A3A3A" font-family="Arial Narrow" font-size="12.5">Health associate professionals n.e.c.</text>
	</g>
	<g>
		<text transform="matrix(1 0 0 1 645.3395 418.0414)" fill="#3A3A3A" font-family="Arial Narrow" font-size="12.5">12,635€</text>
	</g>
	<g>
		<text transform="matrix(1 0 0 1 471.27 435.2589)" fill="#3A3A3A" font-family="Arial Narrow" font-size="12.5">Senior care workers</text>
	</g>
	<g>
		<text transform="matrix(1 0 0 1 645.3395 435.2589)" fill="#3A3A3A" font-family="Arial Narrow" font-size="12.5">26,569€</text>
	</g>
	<text transform="matrix(1 0 0 1 471.27 397.5729)" fill="#DD4A4B" font-family="Arial Narrow" font-weight="700" font-size="16">HEALTH</text>
	<g>
		<text transform="matrix(1 0 0 1 471.27 452.4762)" fill="#3A3A3A" font-family="Arial Narrow" font-size="12.5">Nursing auxiliaries and assistants</text>
	</g>
	<g>
		<text transform="matrix(1 0 0 1 645.3395 452.4762)" fill="#3A3A3A" font-family="Arial Narrow" font-size="12.5">29,221€</text>
	</g>
	<g>
		<text transform="matrix(1 0 0 1 471.27 469.6942)" fill="#3A3A3A" font-family="Arial Narrow" font-size="12.5">Laboratory technicians</text>
	</g>
	<g>
		<text transform="matrix(1 0 0 1 645.3395 469.6942)" fill="#3A3A3A" font-family="Arial Narrow" font-size="12.5">32,745€</text>
	</g>
	<g>
		<text transform="matrix(1 0 0 1 471.27 486.9115)" fill="#3A3A3A" font-family="Arial Narrow" font-size="12.5">Nursing professionals</text>
	</g>
	<g>
		<text transform="matrix(1 0 0 1 645.3395 486.9115)" fill="#3A3A3A" font-family="Arial Narrow" font-size="12.5">44,793€</text>
	</g>
	<g>
		<text transform="matrix(1 0 0 1 471.27 504.1294)" fill="#3A3A3A" font-family="Arial Narrow" font-size="12.5">Paramedics</text>
	</g>
	<g>
		<text transform="matrix(1 0 0 1 645.3395 504.1294)" fill="#3A3A3A" font-family="Arial Narrow" font-size="12.5">60,467€</text>
	</g>
	<g>
		<text transform="matrix(1 0 0 1 471.27 521.3468)" fill="#3A3A3A" font-family="Arial Narrow" font-size="12.5">Medical practitioners</text>
	</g>
	<g>
		<text transform="matrix(1 0 0 1 645.3395 521.3468)" fill="#3A3A3A" font-family="Arial Narrow" font-size="12.5">92,825€</text>
	</g>
</g>
<g>
	<polygon fill="#E0E1E1" points="465.5,546.6 541.8,546.6 541.8,600.4 567.2,600.4 567.2,628.6 465.5,628.6 	"/>
	<polygon fill="#E0E1E1" points="568.3,604 571.9,604 571.8,600.4 575.5,600.4 575.5,604 579.1,604 579.1,607.6 575.5,607.6 
		575.5,611.1 571.9,611.2 571.9,607.6 568.3,607.6 	"/>
</g>
<path fill="#DD4B4B" d="M599,626.8c3.1,0,6.3,0,9.5,0c0-0.7-0.7-1-1.2-1.1c0-4.3,0-8.6,0-13c0.8-0.3,1.6-1.1,1.6-2.1
	c0-3.7-0.1-7.5-0.1-11.3c0,0-0.1-0.5-0.7-0.7c0,0-1.7,0-3,0c0,0,0.2-1.2,0.3-3.1c0,0,0.4-2.3-1.8-2.3c-2.2,0-2,2.3-2,2.3
	c0.1,1.4,0.3,3.1,0.3,3.1c-1.3,0-3,0-3,0c-0.6,0.2-0.7,0.7-0.7,0.7c0,3.8-0.1,7.5-0.1,11.3c0,1,0.7,1.8,1.6,2.1c0,4.4,0,8.7,0,13
	c-0.5,0.2-1.2,0.4-1.2,1.1c3.1,0,6.3,0,9.5,0H599z"/>
<path fill="#DD4B4B" d="M614.9,626.8c3.1,0,6.3,0,9.5,0c0-0.7-0.7-1-1.2-1.1c0-4.3,0-8.6,0-13c0.8-0.3,1.6-1.1,1.6-2.1
	c0-3.7-0.1-7.5-0.1-11.3c0,0-0.1-0.5-0.7-0.7c0,0-1.7,0-3,0c0,0,0.2-1.2,0.3-3.1c0,0,0.4-2.3-1.8-2.3c-2.2,0-2,2.3-2,2.3
	c0.1,1.4,0.3,3.1,0.3,3.1c-1.3,0-3,0-3,0c-0.6,0.2-0.7,0.7-0.7,0.7c0,3.8-0.1,7.5-0.1,11.3c0,1,0.7,1.8,1.6,2.1c0,4.4,0,8.7,0,13
	c-0.5,0.2-1.2,0.4-1.2,1.1c3.1,0,6.3,0,9.5,0H614.9z"/>
<path fill="#DD4B4B" d="M630.7,626.8c3.1,0,6.3,0,9.5,0c0-0.7-0.7-1-1.2-1.1c0-4.3,0-8.6,0-13c0.8-0.3,1.6-1.1,1.6-2.1
	c0-3.7-0.1-7.5-0.1-11.3c0,0-0.1-0.5-0.7-0.7c0,0-1.7,0-3,0c0,0,0.2-1.2,0.3-3.1c0,0,0.4-2.3-1.8-2.3c-2.2,0-2,2.3-2,2.3
	c0.1,1.4,0.3,3.1,0.3,3.1c-1.3,0-3,0-3,0c-0.6,0.2-0.7,0.7-0.7,0.7c0,3.8-0.1,7.5-0.1,11.3c0,1,0.7,1.8,1.6,2.1c0,4.4,0,8.7,0,13
	c-0.5,0.2-1.2,0.4-1.2,1.1c3.1,0,6.3,0,9.5,0H630.7z"/>
<path fill="#DD4B4B" d="M646.6,626.8c3.1,0,6.3,0,9.5,0c0-0.7-0.7-1-1.2-1.1c0-4.3,0-8.6,0-13c0.8-0.3,1.6-1.1,1.6-2.1
	c0-3.7-0.1-7.5-0.1-11.3c0,0-0.1-0.5-0.7-0.7c0,0-1.7,0-3,0c0,0,0.2-1.2,0.3-3.1c0,0,0.4-2.3-1.8-2.3c-2.2,0-2,2.3-2,2.3
	c0.1,1.4,0.3,3.1,0.3,3.1c-1.3,0-3,0-3,0c-0.6,0.2-0.7,0.7-0.7,0.7c0,3.8-0.1,7.5-0.1,11.3c0,1,0.7,1.8,1.6,2.1c0,4.4,0,8.7,0,13
	c-0.5,0.2-1.2,0.4-1.2,1.1c3.1,0,6.3,0,9.5,0H646.6z"/>
<path fill="#BD9C2F" d="M138.8,626.8c3.1,0,6.3,0,9.5,0c0-0.7-0.7-1-1.2-1.1c0-4.3,0-8.6,0-13c0.8-0.3,1.6-1.1,1.6-2.1
	c0-3.7-0.1-7.5-0.1-11.3c0,0-0.1-0.5-0.7-0.7c0,0-1.7,0-3,0c0,0,0.2-1.2,0.3-3.1c0,0,0.4-2.3-1.8-2.3c-2.2,0-2,2.3-2,2.3
	c0.1,1.4,0.3,3.1,0.3,3.1c-1.3,0-3,0-3,0c-0.6,0.2-0.7,0.7-0.7,0.7c0,3.8-0.1,7.5-0.1,11.3c0,1,0.7,1.8,1.6,2.1c0,4.4,0,8.7,0,13
	c-0.5,0.2-1.2,0.4-1.2,1.1c3.1,0,6.3,0,9.5,0H138.8z"/>
<path fill="#BD9C2F" d="M106.4,626.8c3.1,0,6.3,0,9.5,0c0-0.7-0.7-1-1.2-1.1c0-4.3,0-8.6,0-13c0.8-0.3,1.6-1.1,1.6-2.1
	c0-3.7-0.1-7.5-0.1-11.3c0,0-0.1-0.5-0.7-0.7c0,0-1.7,0-3,0c0,0,0.2-1.2,0.3-3.1c0,0,0.4-2.3-1.8-2.3c-2.2,0-2,2.3-2,2.3
	c0.1,1.4,0.3,3.1,0.3,3.1c-1.3,0-3,0-3,0c-0.6,0.2-0.7,0.7-0.7,0.7c0,3.8-0.1,7.5-0.1,11.3c0,1,0.7,1.8,1.6,2.1c0,4.4,0,8.7,0,13
	c-0.5,0.2-1.2,0.4-1.2,1.1c3.1,0,6.3,0,9.5,0H106.4z"/>
<path fill="#BD9C2F" d="M122.2,626.8c3.1,0,6.3,0,9.5,0c0-0.7-0.7-1-1.2-1.1c0-4.3,0-8.6,0-13c0.8-0.3,1.6-1.1,1.6-2.1
	c0-3.7-0.1-7.5-0.1-11.3c0,0-0.1-0.5-0.7-0.7c0,0-1.7,0-3,0c0,0,0.2-1.2,0.3-3.1c0,0,0.4-2.3-1.8-2.3c-2.2,0-2,2.3-2,2.3
	c0.1,1.4,0.3,3.1,0.3,3.1c-1.3,0-3,0-3,0c-0.6,0.2-0.7,0.7-0.7,0.7c0,3.8-0.1,7.5-0.1,11.3c0,1,0.7,1.8,1.6,2.1c0,4.4,0,8.7,0,13
	c-0.5,0.2-1.2,0.4-1.2,1.1c3.1,0,6.3,0,9.5,0H122.2z"/>
<g>
	<path fill="#484748" d="M94.3,789c3.1,0,6.3,0,9.4,0c0-0.7-0.7-1-1.2-1.1c0-4.3,0-8.6,0-13c0.8-0.3,1.6-1.1,1.6-2.1
		c0-3.7-0.1-7.5-0.1-11.3c0,0-0.1-0.5-0.7-0.7c0,0-1.7,0-3,0c0,0,0.2-1.2,0.3-3.1c0,0,0.4-2.3-1.8-2.3c-2.2,0-2,2.3-2,2.3
		c0.1,1.4,0.3,3.1,0.3,3.1c-1.3,0-3,0-3,0c-0.6,0.2-0.7,0.7-0.7,0.7c0,3.8-0.1,7.5-0.1,11.3c0,1,0.7,1.8,1.6,2.1c0,4.4,0,8.7,0,13
		c-0.5,0.2-1.2,0.4-1.2,1.1c3.1,0,6.3,0,9.4,0H94.3z"/>
	<path fill="#484748" d="M110.1,789c3.1,0,6.3,0,9.5,0c0-0.7-0.7-1-1.2-1.1c0-4.3,0-8.6,0-13c0.8-0.3,1.6-1.1,1.6-2.1
		c0-3.7-0.1-7.5-0.1-11.3c0,0-0.1-0.5-0.7-0.7c0,0-1.7,0-3,0c0,0,0.2-1.2,0.3-3.1c0,0,0.4-2.3-1.8-2.3c-2.2,0-2,2.3-2,2.3
		c0.1,1.4,0.3,3.1,0.3,3.1c-1.3,0-3,0-3,0c-0.6,0.2-0.7,0.7-0.7,0.7c0,3.8-0.1,7.5-0.1,11.3c0,1,0.7,1.8,1.6,2.1c0,4.4,0,8.7,0,13
		c-0.5,0.2-1.2,0.4-1.2,1.1c3.1,0,6.3,0,9.4,0H110.1z"/>
	<path fill="#484748" d="M126,789c3.1,0,6.3,0,9.4,0c0-0.7-0.7-1-1.2-1.1c0-4.3,0-8.6,0-13c0.8-0.3,1.6-1.1,1.6-2.1
		c0-3.7-0.1-7.5-0.1-11.3c0,0-0.1-0.5-0.7-0.7c0,0-1.7,0-3,0c0,0,0.2-1.2,0.3-3.1c0,0,0.4-2.3-1.8-2.3c-2.2,0-2,2.3-2,2.3
		c0.1,1.4,0.3,3.1,0.3,3.1c-1.3,0-3,0-3,0c-0.6,0.2-0.7,0.7-0.7,0.7c0,3.8-0.1,7.5-0.1,11.3c0,1,0.7,1.8,1.6,2.1c0,4.4,0,8.7,0,13
		c-0.5,0.2-1.2,0.4-1.2,1.1c3.1,0,6.3,0,9.4,0H126z"/>
	<path fill="#484748" d="M141.8,789c3.1,0,6.3,0,9.4,0c0-0.7-0.7-1-1.2-1.1c0-4.3,0-8.6,0-13c0.8-0.3,1.6-1.1,1.6-2.1
		c0-3.7-0.1-7.5-0.1-11.3c0,0-0.1-0.5-0.7-0.7c0,0-1.7,0-3,0c0,0,0.2-1.2,0.3-3.1c0,0,0.4-2.3-1.8-2.3c-2.2,0-2,2.3-2,2.3
		c0.1,1.4,0.3,3.1,0.3,3.1c-1.3,0-3,0-3,0c-0.6,0.2-0.7,0.7-0.7,0.7c0,3.8-0.1,7.5-0.1,11.3c0,1,0.7,1.8,1.6,2.1c0,4.4,0,8.7,0,13
		c-0.5,0.2-1.2,0.4-1.2,1.1c3.1,0,6.3,0,9.4,0H141.8z"/>
	<path fill="#484748" d="M157.7,789c3.1,0,6.3,0,9.4,0c0-0.7-0.7-1-1.2-1.1c0-4.3,0-8.6,0-13c0.8-0.3,1.6-1.1,1.6-2.1
		c0-3.7-0.1-7.5-0.1-11.3c0,0-0.1-0.5-0.7-0.7c0,0-1.7,0-3,0c0,0,0.2-1.2,0.3-3.1c0,0,0.4-2.3-1.8-2.3c-2.2,0-2,2.3-2,2.3
		c0.1,1.4,0.3,3.1,0.3,3.1c-1.3,0-3,0-3,0c-0.6,0.2-0.7,0.7-0.7,0.7c0,3.8-0.1,7.5-0.1,11.3c0,1,0.7,1.8,1.6,2.1c0,4.4,0,8.7,0,13
		c-0.5,0.2-1.2,0.4-1.2,1.1c3.1,0,6.3,0,9.5,0H157.7z"/>
	<path fill="#484748" d="M181.2,789c3.1,0,6.3,0,9.4,0c0-0.7-0.7-1-1.2-1.1c0-4.3,0-8.6,0-13c0.8-0.3,1.6-1.1,1.6-2.1
		c0-3.7-0.1-7.5-0.1-11.3c0,0-0.1-0.5-0.7-0.7c0,0-1.7,0-3,0c0,0,0.2-1.2,0.3-3.1c0,0,0.4-2.3-1.8-2.3c-2.2,0-2,2.3-2,2.3
		c0.1,1.4,0.3,3.1,0.3,3.1c-1.3,0-3,0-3,0c-0.6,0.2-0.7,0.7-0.7,0.7c0,3.8-0.1,7.5-0.1,11.3c0,1,0.7,1.8,1.6,2.1c0,4.4,0,8.6,0,13
		c-0.5,0.2-1.2,0.4-1.2,1.1c3.1,0,6.3,0,9.5,0H181.2z"/>
	<path fill="#484748" d="M197,789c3.1,0,6.3,0,9.4,0c0-0.7-0.7-1-1.2-1.1c0-4.3,0-8.6,0-13c0.8-0.3,1.6-1.1,1.6-2.1
		c0-3.7-0.1-7.5-0.1-11.3c0,0-0.1-0.5-0.7-0.7c0,0-1.7,0-3,0c0,0,0.2-1.2,0.3-3.1c0,0,0.4-2.3-1.8-2.3c-2.2,0-2,2.3-2,2.3
		c0.1,1.4,0.3,3.1,0.3,3.1c-1.3,0-3,0-3,0c-0.6,0.2-0.7,0.7-0.7,0.7c0,3.8-0.1,7.5-0.1,11.3c0,1,0.7,1.8,1.6,2.1c0,4.4,0,8.6,0,13
		c-0.5,0.2-1.2,0.4-1.2,1.1c3.1,0,6.3,0,9.4,0H197z"/>
	<path fill="#484748" d="M212.9,789c3.1,0,6.3,0,9.4,0c0-0.7-0.7-1-1.2-1.1c0-4.3,0-8.6,0-13c0.8-0.3,1.6-1.1,1.6-2.1
		c0-3.7-0.1-7.5-0.1-11.3c0,0-0.1-0.5-0.7-0.7c0,0-1.7,0-3,0c0,0,0.2-1.2,0.3-3.1c0,0,0.4-2.3-1.8-2.3c-2.2,0-2,2.3-2,2.3
		c0.1,1.4,0.3,3.1,0.3,3.1c-1.3,0-3,0-3,0c-0.6,0.2-0.7,0.7-0.7,0.7c0,3.8-0.1,7.5-0.1,11.3c0,1,0.7,1.8,1.6,2.1c0,4.4,0,8.6,0,13
		c-0.5,0.2-1.2,0.4-1.2,1.1c3.1,0,6.3,0,9.4,0H212.9z"/>
	<path fill="#484748" d="M228.7,789c3.1,0,6.3,0,9.4,0c0-0.7-0.7-1-1.2-1.1c0-4.3,0-8.6,0-13c0.8-0.3,1.6-1.1,1.6-2.1
		c0-3.7-0.1-7.5-0.1-11.3c0,0-0.1-0.5-0.7-0.7c0,0-1.7,0-3,0c0,0,0.2-1.2,0.3-3.1c0,0,0.4-2.3-1.8-2.3c-2.2,0-2,2.3-2,2.3
		c0.1,1.4,0.3,3.1,0.3,3.1c-1.3,0-3,0-3,0c-0.6,0.2-0.7,0.7-0.7,0.7c0,3.8-0.1,7.5-0.1,11.3c0,1,0.7,1.8,1.6,2.1c0,4.4,0,8.6,0,13
		c-0.5,0.2-1.2,0.4-1.2,1.1c3.1,0,6.3,0,9.5,0H228.7z"/>
	<path fill="#484748" d="M244.5,789c3.1,0,6.3,0,9.4,0c0-0.7-0.7-1-1.2-1.1c0-4.3,0-8.6,0-13c0.8-0.3,1.6-1.1,1.6-2.1
		c0-3.7-0.1-7.5-0.1-11.3c0,0-0.1-0.5-0.7-0.7c0,0-1.7,0-3,0c0,0,0.2-1.2,0.3-3.1c0,0,0.4-2.3-1.8-2.3c-2.2,0-2,2.3-2,2.3
		c0.1,1.4,0.3,3.1,0.3,3.1c-1.3,0-3,0-3,0c-0.6,0.2-0.7,0.7-0.7,0.7c0,3.8-0.1,7.5-0.1,11.3c0,1,0.7,1.8,1.6,2.1c0,4.4,0,8.6,0,13
		c-0.5,0.2-1.2,0.4-1.2,1.1c3.1,0,6.3,0,9.4,0H244.5z"/>
	<path fill="#484748" d="M269,788.9c3.1,0,6.3,0,9.4,0c0-0.7-0.7-1-1.2-1.1c0-4.3,0-8.6,0-13c0.8-0.3,1.6-1.1,1.6-2.1
		c0-3.7-0.1-7.5-0.1-11.3c0,0-0.1-0.5-0.7-0.7c0,0-1.7,0-3,0c0,0,0.2-1.2,0.3-3.1c0,0,0.4-2.3-1.8-2.3c-2.2,0-2,2.3-2,2.3
		c0.1,1.4,0.3,3.1,0.3,3.1c-1.3,0-3,0-3,0c-0.6,0.2-0.7,0.7-0.7,0.7c0,3.8-0.1,7.5-0.1,11.3c0,1,0.7,1.8,1.6,2.1c0,4.4,0,8.6,0,13
		c-0.5,0.2-1.2,0.4-1.2,1.1c3.1,0,6.3,0,9.4,0H269z"/>
	<path fill="#484748" d="M284.8,788.9c3.1,0,6.3,0,9.4,0c0-0.7-0.7-1-1.2-1.1c0.1-4.3,0-8.6,0-13c0.8-0.3,1.6-1.1,1.6-2.1
		c0-3.7-0.1-7.5-0.1-11.3c0,0-0.1-0.5-0.7-0.7c0,0-1.7,0-3,0c0,0,0.2-1.2,0.3-3.1c0,0,0.4-2.3-1.8-2.3c-2.2,0-2,2.3-2,2.3
		c0.1,1.4,0.3,3.1,0.3,3.1c-1.3,0-3,0-3,0c-0.6,0.2-0.7,0.7-0.7,0.7c0,3.8-0.1,7.5-0.1,11.3c0,1,0.7,1.8,1.6,2.1c0,4.4,0,8.6,0,13
		c-0.5,0.2-1.2,0.4-1.2,1.1c3.1,0,6.3,0,9.4,0H284.8z"/>
	<path fill="#484748" d="M300.7,788.9c3.1,0,6.3,0,9.4,0c0-0.7-0.7-1-1.2-1.1c0-4.3,0-8.6,0-13c0.8-0.3,1.6-1.1,1.6-2.1
		c0-3.7-0.1-7.5-0.1-11.3c0,0-0.1-0.5-0.7-0.7c0,0-1.7,0-3,0c0,0,0.2-1.2,0.3-3.1c0,0,0.4-2.3-1.8-2.3c-2.2,0-2,2.3-2,2.3
		c0.1,1.4,0.3,3.1,0.3,3.1c-1.3,0-3,0-3,0c-0.6,0.2-0.7,0.7-0.7,0.7c0,3.8-0.1,7.5-0.1,11.3c0,1,0.7,1.8,1.6,2.1c0,4.4,0,8.6,0,13
		c-0.5,0.2-1.2,0.4-1.2,1.1c3.1,0,6.3,0,9.4,0H300.7z"/>
	<path fill="#484748" d="M316.5,788.9c3.1,0,6.3,0,9.4,0c0-0.7-0.7-1-1.2-1.1c0-4.3,0-8.6,0-13c0.8-0.3,1.6-1.1,1.6-2.1
		c0-3.7-0.1-7.5-0.1-11.3c0,0-0.1-0.5-0.7-0.7c0,0-1.7,0-3,0c0,0,0.2-1.2,0.3-3.1c0,0,0.4-2.3-1.8-2.3c-2.2,0-2,2.3-2,2.3
		c0.1,1.4,0.3,3.1,0.3,3.1c-1.3,0-3,0-3,0c-0.6,0.2-0.7,0.7-0.7,0.7c0,3.8-0.1,7.5-0.1,11.3c0,1,0.7,1.8,1.6,2.1c0,4.4,0,8.6,0,13
		c-0.5,0.2-1.2,0.4-1.2,1.1c3.1,0,6.3,0,9.4,0H316.5z"/>
	<path fill="#484748" d="M332.3,788.9c3.1,0,6.3,0,9.4,0c0-0.7-0.7-1-1.2-1.1c0-4.3,0-8.6,0-13c0.8-0.3,1.6-1.1,1.6-2.1
		c0-3.7-0.1-7.5-0.1-11.3c0,0-0.1-0.5-0.7-0.7c0,0-1.7,0-3,0c0,0,0.2-1.2,0.3-3.1c0,0,0.4-2.3-1.8-2.3c-2.2,0-2,2.3-2,2.3
		c0.1,1.4,0.3,3.1,0.3,3.1c-1.3,0-3,0-3,0c-0.6,0.2-0.7,0.7-0.7,0.7c0,3.8-0.1,7.5-0.1,11.3c0,1,0.7,1.8,1.6,2.1c0,4.4,0,8.6,0,13
		c-0.5,0.2-1.2,0.4-1.2,1.1c3.1,0,6.3,0,9.4,0H332.3z"/>
</g>
<g>
	<path fill="#484748" d="M360,788.9c3.1,0,6.3,0,9.4,0c0-0.7-0.7-1-1.2-1.1c0-4.3,0-8.6,0-13c0.8-0.3,1.6-1.1,1.6-2.1
		c0-3.7-0.1-7.5-0.1-11.3c0,0-0.1-0.5-0.7-0.7c0,0-1.7,0-3,0c0,0,0.2-1.2,0.3-3.1c0,0,0.4-2.3-1.8-2.3c-2.2,0-2,2.3-2,2.3
		c0.1,1.4,0.3,3.1,0.3,3.1c-1.3,0-3,0-3,0c-0.6,0.2-0.7,0.7-0.7,0.7c0,3.8-0.1,7.5-0.1,11.3c0,1,0.7,1.8,1.6,2.1c0,4.4,0,8.7,0,13
		c-0.5,0.2-1.2,0.4-1.2,1.1c3.1,0,6.3,0,9.4,0H360z"/>
	<path fill="#484748" d="M375.8,788.9c3.1,0,6.3,0,9.5,0c0-0.7-0.7-1-1.2-1.1c0-4.3,0-8.6,0-13c0.8-0.3,1.6-1.1,1.6-2.1
		c0-3.7-0.1-7.5-0.1-11.3c0,0-0.1-0.5-0.7-0.7c0,0-1.7,0-3,0c0,0,0.2-1.2,0.3-3.1c0,0,0.4-2.3-1.8-2.3c-2.2,0-2,2.3-2,2.3
		c0.1,1.4,0.3,3.1,0.3,3.1c-1.3,0-3,0-3,0c-0.6,0.2-0.7,0.7-0.7,0.7c0,3.8-0.1,7.5-0.1,11.3c0,1,0.7,1.8,1.6,2.1c0,4.4,0,8.7,0,13
		c-0.5,0.2-1.2,0.4-1.2,1.1c3.1,0,6.3,0,9.4,0H375.8z"/>
	<path fill="#484748" d="M391.7,788.9c3.1,0,6.3,0,9.4,0c0-0.7-0.7-1-1.2-1.1c0-4.3,0-8.6,0-13c0.8-0.3,1.6-1.1,1.6-2.1
		c0-3.7-0.1-7.5-0.1-11.3c0,0-0.1-0.5-0.7-0.7c0,0-1.7,0-3,0c0,0,0.2-1.2,0.3-3.1c0,0,0.4-2.3-1.8-2.3c-2.2,0-2,2.3-2,2.3
		c0.1,1.4,0.3,3.1,0.3,3.1c-1.3,0-3,0-3,0c-0.6,0.2-0.7,0.7-0.7,0.7c0,3.8-0.1,7.5-0.1,11.3c0,1,0.7,1.8,1.6,2.1c0,4.4,0,8.7,0,13
		c-0.5,0.2-1.2,0.4-1.2,1.1c3.1,0,6.3,0,9.4,0H391.7z"/>
	<path fill="#484748" d="M407.5,788.9c3.1,0,6.3,0,9.4,0c0-0.7-0.7-1-1.2-1.1c0-4.3,0-8.6,0-13c0.8-0.3,1.6-1.1,1.6-2.1
		c0-3.7-0.1-7.5-0.1-11.3c0,0-0.1-0.5-0.7-0.7c0,0-1.7,0-3,0c0,0,0.2-1.2,0.3-3.1c0,0,0.4-2.3-1.8-2.3c-2.2,0-2,2.3-2,2.3
		c0.1,1.4,0.3,3.1,0.3,3.1c-1.3,0-3,0-3,0c-0.6,0.2-0.7,0.7-0.7,0.7c0,3.8-0.1,7.5-0.1,11.3c0,1,0.7,1.8,1.6,2.1c0,4.4,0,8.7,0,13
		c-0.5,0.2-1.2,0.4-1.2,1.1c3.1,0,6.3,0,9.4,0H407.5z"/>
	<path fill="#484748" d="M423.3,788.9c3.1,0,6.3,0,9.4,0c0-0.7-0.7-1-1.2-1.1c0-4.3,0-8.6,0-13c0.8-0.3,1.6-1.1,1.6-2.1
		c0-3.7-0.1-7.5-0.1-11.3c0,0-0.1-0.5-0.7-0.7c0,0-1.7,0-3,0c0,0,0.2-1.2,0.3-3.1c0,0,0.4-2.3-1.8-2.3c-2.2,0-2,2.3-2,2.3
		c0.1,1.4,0.3,3.1,0.3,3.1c-1.3,0-3,0-3,0c-0.6,0.2-0.7,0.7-0.7,0.7c0,3.8-0.1,7.5-0.1,11.3c0,1,0.7,1.8,1.6,2.1c0,4.4,0,8.7,0,13
		c-0.5,0.2-1.2,0.4-1.2,1.1c3.1,0,6.3,0,9.5,0H423.3z"/>
	<path fill="#484748" d="M446.9,788.9c3.1,0,6.3,0,9.4,0c0-0.7-0.7-1-1.2-1.1c0-4.3,0-8.6,0-13c0.8-0.3,1.6-1.1,1.6-2.1
		c0-3.7-0.1-7.5-0.1-11.3c0,0-0.1-0.5-0.7-0.7c0,0-1.7,0-3,0c0,0,0.2-1.2,0.3-3.1c0,0,0.4-2.3-1.8-2.3c-2.2,0-2,2.3-2,2.3
		c0.1,1.4,0.3,3.1,0.3,3.1c-1.3,0-3,0-3,0c-0.6,0.2-0.7,0.7-0.7,0.7c0,3.8-0.1,7.5-0.1,11.3c0,1,0.7,1.8,1.6,2.1c0,4.4,0,8.6,0,13
		c-0.5,0.2-1.2,0.4-1.2,1.1c3.1,0,6.3,0,9.5,0H446.9z"/>
	<path fill="#484748" d="M462.7,788.9c3.1,0,6.3,0,9.4,0c0-0.7-0.7-1-1.2-1.1c0-4.3,0-8.6,0-13c0.8-0.3,1.6-1.1,1.6-2.1
		c0-3.7-0.1-7.5-0.1-11.3c0,0-0.1-0.5-0.7-0.7c0,0-1.7,0-3,0c0,0,0.2-1.2,0.3-3.1c0,0,0.4-2.3-1.8-2.3c-2.2,0-2,2.3-2,2.3
		c0.1,1.4,0.3,3.1,0.3,3.1c-1.3,0-3,0-3,0c-0.6,0.2-0.7,0.7-0.7,0.7c0,3.8-0.1,7.5-0.1,11.3c0,1,0.7,1.8,1.6,2.1c0,4.4,0,8.6,0,13
		c-0.5,0.2-1.2,0.4-1.2,1.1c3.1,0,6.3,0,9.4,0H462.7z"/>
	<path fill="#484748" d="M478.5,788.9c3.1,0,6.3,0,9.4,0c0-0.7-0.7-1-1.2-1.1c0-4.3,0-8.6,0-13c0.8-0.3,1.6-1.1,1.6-2.1
		c0-3.7-0.1-7.5-0.1-11.3c0,0-0.1-0.5-0.7-0.7c0,0-1.7,0-3,0c0,0,0.2-1.2,0.3-3.1c0,0,0.4-2.3-1.8-2.3c-2.2,0-2,2.3-2,2.3
		c0.1,1.4,0.3,3.1,0.3,3.1c-1.3,0-3,0-3,0c-0.6,0.2-0.7,0.7-0.7,0.7c0,3.8-0.1,7.5-0.1,11.3c0,1,0.7,1.8,1.6,2.1c0,4.4,0,8.6,0,13
		c-0.5,0.2-1.2,0.4-1.2,1.1c3.1,0,6.3,0,9.4,0H478.5z"/>
	<path fill="#484748" d="M494.4,788.9c3.1,0,6.3,0,9.4,0c0-0.7-0.7-1-1.2-1.1c0-4.3,0-8.6,0-13c0.8-0.3,1.6-1.1,1.6-2.1
		c0-3.7-0.1-7.5-0.1-11.3c0,0-0.1-0.5-0.7-0.7c0,0-1.7,0-3,0c0,0,0.2-1.2,0.3-3.1c0,0,0.4-2.3-1.8-2.3c-2.2,0-2,2.3-2,2.3
		c0.1,1.4,0.3,3.1,0.3,3.1c-1.3,0-3,0-3,0c-0.6,0.2-0.7,0.7-0.7,0.7c0,3.8-0.1,7.5-0.1,11.3c0,1,0.7,1.8,1.6,2.1c0,4.4,0,8.6,0,13
		c-0.5,0.2-1.2,0.4-1.2,1.1c3.1,0,6.3,0,9.5,0H494.4z"/>
	<path fill="#484748" d="M510.2,788.9c3.1,0,6.3,0,9.4,0c0-0.7-0.7-1-1.2-1.1c0-4.3,0-8.6,0-13c0.8-0.3,1.6-1.1,1.6-2.1
		c0-3.7-0.1-7.5-0.1-11.3c0,0-0.1-0.5-0.7-0.7c0,0-1.7,0-3,0c0,0,0.2-1.2,0.3-3.1c0,0,0.4-2.3-1.8-2.3c-2.2,0-2,2.3-2,2.3
		c0.1,1.4,0.3,3.1,0.3,3.1c-1.3,0-3,0-3,0c-0.6,0.2-0.7,0.7-0.7,0.7c0,3.8-0.1,7.5-0.1,11.3c0,1,0.7,1.8,1.6,2.1c0,4.4,0,8.6,0,13
		c-0.5,0.2-1.2,0.4-1.2,1.1c3.1,0,6.3,0,9.4,0H510.2z"/>
	<path fill="#484748" d="M533.7,788.9c3.1,0,6.3,0,9.4,0c0-0.7-0.7-1-1.2-1.1c0-4.3,0-8.6,0-13c0.8-0.3,1.6-1.1,1.6-2.1
		c0-3.7-0.1-7.5-0.1-11.3c0,0-0.1-0.5-0.7-0.7c0,0-1.7,0-3,0c0,0,0.2-1.2,0.3-3.1c0,0,0.4-2.3-1.8-2.3c-2.2,0-2,2.3-2,2.3
		c0.1,1.4,0.3,3.1,0.3,3.1c-1.3,0-3,0-3,0c-0.6,0.2-0.7,0.7-0.7,0.7c0,3.8-0.1,7.5-0.1,11.3c0,1,0.7,1.8,1.6,2.1c0,4.4,0,8.6,0,13
		c-0.5,0.2-1.2,0.4-1.2,1.1c3.1,0,6.3,0,9.5,0H533.7z"/>
	<path fill="#484748" d="M549.5,788.9c3.1,0,6.3,0,9.4,0c0-0.7-0.7-1-1.2-1.1c0-4.3,0-8.6,0-13c0.8-0.3,1.6-1.1,1.6-2.1
		c0-3.7-0.1-7.5-0.1-11.3c0,0-0.1-0.5-0.7-0.7c0,0-1.7,0-3,0c0,0,0.2-1.2,0.3-3.1c0,0,0.4-2.3-1.8-2.3c-2.2,0-2,2.3-2,2.3
		c0.1,1.4,0.3,3.1,0.3,3.1c-1.3,0-3,0-3,0c-0.6,0.2-0.7,0.7-0.7,0.7c0,3.8-0.1,7.5-0.1,11.3c0,1,0.7,1.8,1.6,2.1c0,4.4,0,8.6,0,13
		c-0.5,0.2-1.2,0.4-1.2,1.1c3.1,0,6.3,0,9.4,0H549.5z"/>
	<path fill="#484748" d="M565.4,788.9c3.1,0,6.3,0,9.4,0c0-0.7-0.7-1-1.2-1.1c0-4.3,0-8.6,0-13c0.8-0.3,1.6-1.1,1.6-2.1
		c0-3.7-0.1-7.5-0.1-11.3c0,0-0.1-0.5-0.7-0.7c0,0-1.7,0-3,0c0,0,0.2-1.2,0.3-3.1c0,0,0.4-2.3-1.8-2.3c-2.2,0-2,2.3-2,2.3
		c0.1,1.4,0.3,3.1,0.3,3.1c-1.3,0-3,0-3,0c-0.6,0.2-0.7,0.7-0.7,0.7c0,3.8-0.1,7.5-0.1,11.3c0,1,0.7,1.8,1.6,2.1c0,4.4,0,8.6,0,13
		c-0.5,0.2-1.2,0.4-1.2,1.1c3.1,0,6.3,0,9.4,0H565.4z"/>
	<path fill="#484748" d="M581.3,788.9c3.1,0,6.3,0,9.4,0c0-0.7-0.7-1-1.2-1.1c0-4.3,0-8.6,0-13c0.8-0.3,1.6-1.1,1.6-2.1
		c0-3.7-0.1-7.5-0.1-11.3c0,0-0.1-0.5-0.7-0.7c0,0-1.7,0-3,0c0,0,0.2-1.2,0.3-3.1c0,0,0.4-2.3-1.8-2.3c-2.2,0-2,2.3-2,2.3
		c0.1,1.4,0.3,3.1,0.3,3.1c-1.3,0-3,0-3,0c-0.6,0.2-0.7,0.7-0.7,0.7c0,3.8-0.1,7.5-0.1,11.3c0,1,0.7,1.8,1.6,2.1c0,4.4,0,8.6,0,13
		c-0.5,0.2-1.2,0.4-1.2,1.1c3.1,0,6.3,0,9.5,0H581.3z"/>
</g>
<g>
	<path fill="#484748" d="M94.3,876.4c3.1,0,6.3,0,9.4,0c0-0.7-0.7-1-1.2-1.1c0-4.3,0-8.6,0-13c0.8-0.3,1.6-1.1,1.6-2.1
		c0-3.7-0.1-7.5-0.1-11.3c0,0-0.1-0.5-0.7-0.7c0,0-1.7,0-3,0c0,0,0.2-1.2,0.3-3.1c0,0,0.4-2.3-1.8-2.3c-2.2,0-2,2.3-2,2.3
		c0.1,1.4,0.3,3.1,0.3,3.1c-1.3,0-3,0-3,0c-0.6,0.2-0.7,0.7-0.7,0.7c0,3.8-0.1,7.5-0.1,11.3c0,1,0.7,1.8,1.6,2.1c0,4.4,0,8.7,0,13
		c-0.5,0.2-1.2,0.4-1.2,1.1c3.1,0,6.3,0,9.4,0H94.3z"/>
	<path fill="#484748" d="M110.1,876.4c3.1,0,6.3,0,9.5,0c0-0.7-0.7-1-1.2-1.1c0-4.3,0-8.6,0-13c0.8-0.3,1.6-1.1,1.6-2.1
		c0-3.7-0.1-7.5-0.1-11.3c0,0-0.1-0.5-0.7-0.7c0,0-1.7,0-3,0c0,0,0.2-1.2,0.3-3.1c0,0,0.4-2.3-1.8-2.3c-2.2,0-2,2.3-2,2.3
		c0.1,1.4,0.3,3.1,0.3,3.1c-1.3,0-3,0-3,0c-0.6,0.2-0.7,0.7-0.7,0.7c0,3.8-0.1,7.5-0.1,11.3c0,1,0.7,1.8,1.6,2.1c0,4.4,0,8.7,0,13
		c-0.5,0.2-1.2,0.4-1.2,1.1c3.1,0,6.3,0,9.4,0H110.1z"/>
	<path fill="#484748" d="M126,876.4c3.1,0,6.3,0,9.4,0c0-0.7-0.7-1-1.2-1.1c0-4.3,0-8.6,0-13c0.8-0.3,1.6-1.1,1.6-2.1
		c0-3.7-0.1-7.5-0.1-11.3c0,0-0.1-0.5-0.7-0.7c0,0-1.7,0-3,0c0,0,0.2-1.2,0.3-3.1c0,0,0.4-2.3-1.8-2.3c-2.2,0-2,2.3-2,2.3
		c0.1,1.4,0.3,3.1,0.3,3.1c-1.3,0-3,0-3,0c-0.6,0.2-0.7,0.7-0.7,0.7c0,3.8-0.1,7.5-0.1,11.3c0,1,0.7,1.8,1.6,2.1c0,4.4,0,8.7,0,13
		c-0.5,0.2-1.2,0.4-1.2,1.1c3.1,0,6.3,0,9.4,0H126z"/>
	<path fill="#484748" d="M141.8,876.4c3.1,0,6.3,0,9.4,0c0-0.7-0.7-1-1.2-1.1c0-4.3,0-8.6,0-13c0.8-0.3,1.6-1.1,1.6-2.1
		c0-3.7-0.1-7.5-0.1-11.3c0,0-0.1-0.5-0.7-0.7c0,0-1.7,0-3,0c0,0,0.2-1.2,0.3-3.1c0,0,0.4-2.3-1.8-2.3c-2.2,0-2,2.3-2,2.3
		c0.1,1.4,0.3,3.1,0.3,3.1c-1.3,0-3,0-3,0c-0.6,0.2-0.7,0.7-0.7,0.7c0,3.8-0.1,7.5-0.1,11.3c0,1,0.7,1.8,1.6,2.1c0,4.4,0,8.7,0,13
		c-0.5,0.2-1.2,0.4-1.2,1.1c3.1,0,6.3,0,9.4,0H141.8z"/>
	<path fill="#484748" d="M157.7,876.4c3.1,0,6.3,0,9.4,0c0-0.7-0.7-1-1.2-1.1c0-4.3,0-8.6,0-13c0.8-0.3,1.6-1.1,1.6-2.1
		c0-3.7-0.1-7.5-0.1-11.3c0,0-0.1-0.5-0.7-0.7c0,0-1.7,0-3,0c0,0,0.2-1.2,0.3-3.1c0,0,0.4-2.3-1.8-2.3c-2.2,0-2,2.3-2,2.3
		c0.1,1.4,0.3,3.1,0.3,3.1c-1.3,0-3,0-3,0c-0.6,0.2-0.7,0.7-0.7,0.7c0,3.8-0.1,7.5-0.1,11.3c0,1,0.7,1.8,1.6,2.1c0,4.4,0,8.7,0,13
		c-0.5,0.2-1.2,0.4-1.2,1.1c3.1,0,6.3,0,9.5,0H157.7z"/>
	<path fill="#484748" d="M181.2,876.4c3.1,0,6.3,0,9.4,0c0-0.7-0.7-1-1.2-1.1c0-4.3,0-8.6,0-13c0.8-0.3,1.6-1.1,1.6-2.1
		c0-3.7-0.1-7.5-0.1-11.3c0,0-0.1-0.5-0.7-0.7c0,0-1.7,0-3,0c0,0,0.2-1.2,0.3-3.1c0,0,0.4-2.3-1.8-2.3c-2.2,0-2,2.3-2,2.3
		c0.1,1.4,0.3,3.1,0.3,3.1c-1.3,0-3,0-3,0c-0.6,0.2-0.7,0.7-0.7,0.7c0,3.8-0.1,7.5-0.1,11.3c0,1,0.7,1.8,1.6,2.1c0,4.4,0,8.6,0,13
		c-0.5,0.2-1.2,0.4-1.2,1.1c3.1,0,6.3,0,9.5,0H181.2z"/>
	<path fill="#484748" d="M197,876.4c3.1,0,6.3,0,9.4,0c0-0.7-0.7-1-1.2-1.1c0-4.3,0-8.6,0-13c0.8-0.3,1.6-1.1,1.6-2.1
		c0-3.7-0.1-7.5-0.1-11.3c0,0-0.1-0.5-0.7-0.7c0,0-1.7,0-3,0c0,0,0.2-1.2,0.3-3.1c0,0,0.4-2.3-1.8-2.3c-2.2,0-2,2.3-2,2.3
		c0.1,1.4,0.3,3.1,0.3,3.1c-1.3,0-3,0-3,0c-0.6,0.2-0.7,0.7-0.7,0.7c0,3.8-0.1,7.5-0.1,11.3c0,1,0.7,1.8,1.6,2.1c0,4.4,0,8.6,0,13
		c-0.5,0.2-1.2,0.4-1.2,1.1c3.1,0,6.3,0,9.4,0H197z"/>
	<path fill="#484748" d="M212.9,876.4c3.1,0,6.3,0,9.4,0c0-0.7-0.7-1-1.2-1.1c0-4.3,0-8.6,0-13c0.8-0.3,1.6-1.1,1.6-2.1
		c0-3.7-0.1-7.5-0.1-11.3c0,0-0.1-0.5-0.7-0.7c0,0-1.7,0-3,0c0,0,0.2-1.2,0.3-3.1c0,0,0.4-2.3-1.8-2.3c-2.2,0-2,2.3-2,2.3
		c0.1,1.4,0.3,3.1,0.3,3.1c-1.3,0-3,0-3,0c-0.6,0.2-0.7,0.7-0.7,0.7c0,3.8-0.1,7.5-0.1,11.3c0,1,0.7,1.8,1.6,2.1c0,4.4,0,8.6,0,13
		c-0.5,0.2-1.2,0.4-1.2,1.1c3.1,0,6.3,0,9.4,0H212.9z"/>
	<path fill="#484748" d="M228.7,876.4c3.1,0,6.3,0,9.4,0c0-0.7-0.7-1-1.2-1.1c0-4.3,0-8.6,0-13c0.8-0.3,1.6-1.1,1.6-2.1
		c0-3.7-0.1-7.5-0.1-11.3c0,0-0.1-0.5-0.7-0.7c0,0-1.7,0-3,0c0,0,0.2-1.2,0.3-3.1c0,0,0.4-2.3-1.8-2.3c-2.2,0-2,2.3-2,2.3
		c0.1,1.4,0.3,3.1,0.3,3.1c-1.3,0-3,0-3,0c-0.6,0.2-0.7,0.7-0.7,0.7c0,3.8-0.1,7.5-0.1,11.3c0,1,0.7,1.8,1.6,2.1c0,4.4,0,8.6,0,13
		c-0.5,0.2-1.2,0.4-1.2,1.1c3.1,0,6.3,0,9.5,0H228.7z"/>
	<path fill="#484748" d="M244.5,876.4c3.1,0,6.3,0,9.4,0c0-0.7-0.7-1-1.2-1.1c0-4.3,0-8.6,0-13c0.8-0.3,1.6-1.1,1.6-2.1
		c0-3.7-0.1-7.5-0.1-11.3c0,0-0.1-0.5-0.7-0.7c0,0-1.7,0-3,0c0,0,0.2-1.2,0.3-3.1c0,0,0.4-2.3-1.8-2.3c-2.2,0-2,2.3-2,2.3
		c0.1,1.4,0.3,3.1,0.3,3.1c-1.3,0-3,0-3,0c-0.6,0.2-0.7,0.7-0.7,0.7c0,3.8-0.1,7.5-0.1,11.3c0,1,0.7,1.8,1.6,2.1c0,4.4,0,8.6,0,13
		c-0.5,0.2-1.2,0.4-1.2,1.1c3.1,0,6.3,0,9.4,0H244.5z"/>
	<path fill="#484748" d="M269,876.4c3.1,0,6.3,0,9.4,0c0-0.7-0.7-1-1.2-1.1c0-4.3,0-8.6,0-13c0.8-0.3,1.6-1.1,1.6-2.1
		c0-3.7-0.1-7.5-0.1-11.3c0,0-0.1-0.5-0.7-0.7c0,0-1.7,0-3,0c0,0,0.2-1.2,0.3-3.1c0,0,0.4-2.3-1.8-2.3c-2.2,0-2,2.3-2,2.3
		c0.1,1.4,0.3,3.1,0.3,3.1c-1.3,0-3,0-3,0c-0.6,0.2-0.7,0.7-0.7,0.7c0,3.8-0.1,7.5-0.1,11.3c0,1,0.7,1.8,1.6,2.1c0,4.4,0,8.6,0,13
		c-0.5,0.2-1.2,0.4-1.2,1.1c3.1,0,6.3,0,9.4,0H269z"/>
	<path fill="#484748" d="M284.8,876.4c3.1,0,6.3,0,9.4,0c0-0.7-0.7-1-1.2-1.1c0.1-4.3,0-8.6,0-13c0.8-0.3,1.6-1.1,1.6-2.1
		c0-3.7-0.1-7.5-0.1-11.3c0,0-0.1-0.5-0.7-0.7c0,0-1.7,0-3,0c0,0,0.2-1.2,0.3-3.1c0,0,0.4-2.3-1.8-2.3c-2.2,0-2,2.3-2,2.3
		c0.1,1.4,0.3,3.1,0.3,3.1c-1.3,0-3,0-3,0c-0.6,0.2-0.7,0.7-0.7,0.7c0,3.8-0.1,7.5-0.1,11.3c0,1,0.7,1.8,1.6,2.1c0,4.4,0,8.6,0,13
		c-0.5,0.2-1.2,0.4-1.2,1.1c3.1,0,6.3,0,9.4,0H284.8z"/>
	<path fill="#484748" d="M300.7,876.4c3.1,0,6.3,0,9.4,0c0-0.7-0.7-1-1.2-1.1c0-4.3,0-8.6,0-13c0.8-0.3,1.6-1.1,1.6-2.1
		c0-3.7-0.1-7.5-0.1-11.3c0,0-0.1-0.5-0.7-0.7c0,0-1.7,0-3,0c0,0,0.2-1.2,0.3-3.1c0,0,0.4-2.3-1.8-2.3c-2.2,0-2,2.3-2,2.3
		c0.1,1.4,0.3,3.1,0.3,3.1c-1.3,0-3,0-3,0c-0.6,0.2-0.7,0.7-0.7,0.7c0,3.8-0.1,7.5-0.1,11.3c0,1,0.7,1.8,1.6,2.1c0,4.4,0,8.6,0,13
		c-0.5,0.2-1.2,0.4-1.2,1.1c3.1,0,6.3,0,9.4,0H300.7z"/>
	<path fill="#484748" d="M316.5,876.4c3.1,0,6.3,0,9.4,0c0-0.7-0.7-1-1.2-1.1c0-4.3,0-8.6,0-13c0.8-0.3,1.6-1.1,1.6-2.1
		c0-3.7-0.1-7.5-0.1-11.3c0,0-0.1-0.5-0.7-0.7c0,0-1.7,0-3,0c0,0,0.2-1.2,0.3-3.1c0,0,0.4-2.3-1.8-2.3c-2.2,0-2,2.3-2,2.3
		c0.1,1.4,0.3,3.1,0.3,3.1c-1.3,0-3,0-3,0c-0.6,0.2-0.7,0.7-0.7,0.7c0,3.8-0.1,7.5-0.1,11.3c0,1,0.7,1.8,1.6,2.1c0,4.4,0,8.6,0,13
		c-0.5,0.2-1.2,0.4-1.2,1.1c3.1,0,6.3,0,9.4,0H316.5z"/>
	<path fill="#484748" d="M332.3,876.4c3.1,0,6.3,0,9.4,0c0-0.7-0.7-1-1.2-1.1c0-4.3,0-8.6,0-13c0.8-0.3,1.6-1.1,1.6-2.1
		c0-3.7-0.1-7.5-0.1-11.3c0,0-0.1-0.5-0.7-0.7c0,0-1.7,0-3,0c0,0,0.2-1.2,0.3-3.1c0,0,0.4-2.3-1.8-2.3c-2.2,0-2,2.3-2,2.3
		c0.1,1.4,0.3,3.1,0.3,3.1c-1.3,0-3,0-3,0c-0.6,0.2-0.7,0.7-0.7,0.7c0,3.8-0.1,7.5-0.1,11.3c0,1,0.7,1.8,1.6,2.1c0,4.4,0,8.6,0,13
		c-0.5,0.2-1.2,0.4-1.2,1.1c3.1,0,6.3,0,9.4,0H332.3z"/>
	<path fill="#484748" d="M359.2,876.4c3.1,0,6.3,0,9.5,0c0-0.7-0.7-1-1.2-1.1c0-4.3,0-8.6,0-13c0.8-0.3,1.6-1.1,1.6-2.1
		c0-3.7-0.1-7.5-0.1-11.3c0,0-0.1-0.5-0.7-0.7c0,0-1.7,0-3,0c0,0,0.2-1.2,0.3-3.1c0,0,0.4-2.3-1.8-2.3c-2.2,0-2,2.3-2,2.3
		c0.1,1.4,0.3,3.1,0.3,3.1c-1.3,0-3,0-3,0c-0.6,0.2-0.7,0.7-0.7,0.7c0,3.8-0.1,7.5-0.1,11.3c0,1,0.7,1.8,1.6,2.1c0,4.4,0,8.6,0,13
		c-0.5,0.2-1.2,0.4-1.2,1.1c3.1,0,6.3,0,9.4,0H359.2z"/>
	<path fill="#484748" d="M375,876.4c3.1,0,6.3,0,9.4,0c0-0.7-0.7-1-1.2-1.1c0-4.3,0-8.6,0-13c0.8-0.3,1.6-1.1,1.6-2.1
		c0-3.7-0.1-7.5-0.1-11.3c0,0-0.1-0.5-0.7-0.7c0,0-1.7,0-3,0c0,0,0.2-1.2,0.3-3.1c0,0,0.4-2.3-1.8-2.3c-2.2,0-2,2.3-2,2.3
		c0.1,1.4,0.3,3.1,0.3,3.1c-1.3,0-3,0-3,0c-0.6,0.2-0.7,0.7-0.7,0.7c0,3.8-0.1,7.5-0.1,11.3c0,1,0.7,1.8,1.6,2.1c0,4.4,0,8.6,0,13
		c-0.5,0.2-1.2,0.4-1.2,1.1c3.1,0,6.3,0,9.4,0H375z"/>
	<path fill="#484748" d="M390.9,876.4c3.1,0,6.3,0,9.4,0c0-0.7-0.7-1-1.2-1.1c0-4.3,0-8.6,0-13c0.8-0.3,1.6-1.1,1.6-2.1
		c0-3.7-0.1-7.5-0.1-11.3c0,0-0.1-0.5-0.7-0.7c0,0-1.7,0-3,0c0,0,0.2-1.2,0.3-3.1c0,0,0.4-2.3-1.8-2.3c-2.2,0-2,2.3-2,2.3
		c0.1,1.4,0.3,3.1,0.3,3.1c-1.3,0-3,0-3,0c-0.6,0.2-0.7,0.7-0.7,0.7c0,3.8-0.1,7.5-0.1,11.3c0,1,0.7,1.8,1.6,2.1c0,4.4,0,8.6,0,13
		c-0.5,0.2-1.2,0.4-1.2,1.1c3.1,0,6.3,0,9.4,0H390.9z"/>
	<path fill="#484748" d="M406.7,876.4c3.1,0,6.3,0,9.5,0c0-0.7-0.7-1-1.2-1.1c0-4.3,0-8.6,0-13c0.8-0.3,1.6-1.1,1.6-2.1
		c0-3.7-0.1-7.5-0.1-11.3c0,0-0.1-0.5-0.7-0.7c0,0-1.7,0-3,0c0,0,0.2-1.2,0.3-3.1c0,0,0.4-2.3-1.8-2.3c-2.2,0-2,2.3-2,2.3
		c0.1,1.4,0.3,3.1,0.3,3.1c-1.3,0-3,0-3,0c-0.6,0.2-0.7,0.7-0.7,0.7c0,3.8-0.1,7.5-0.1,11.3c0,1,0.7,1.8,1.6,2.1c0,4.4,0,8.6,0,13
		c-0.5,0.2-1.2,0.4-1.2,1.1c3.1,0,6.3,0,9.5,0H406.7z"/>
	<path fill="#484748" d="M422.5,876.4c3.1,0,6.3,0,9.4,0c0-0.7-0.7-1-1.2-1.1c0-4.3,0-8.6,0-13c0.8-0.3,1.6-1.1,1.6-2.1
		c0-3.7-0.1-7.5-0.1-11.3c0,0-0.1-0.5-0.7-0.7c0,0-1.7,0-3,0c0,0,0.2-1.2,0.3-3.1c0,0,0.4-2.3-1.8-2.3c-2.2,0-2,2.3-2,2.3
		c0.1,1.4,0.3,3.1,0.3,3.1c-1.3,0-3,0-3,0c-0.6,0.2-0.7,0.7-0.7,0.7c0,3.8-0.1,7.5-0.1,11.3c0,1,0.7,1.8,1.6,2.1c0,4.4,0,8.6,0,13
		c-0.5,0.2-1.2,0.4-1.2,1.1c3.1,0,6.3,0,9.5,0H422.5z"/>
	<path fill="#484748" d="M447,876.4c3.1,0,6.3,0,9.4,0c0-0.7-0.7-1-1.2-1.1c0-4.3,0-8.6,0-13c0.8-0.3,1.6-1.1,1.6-2.1
		c0-3.7-0.1-7.5-0.1-11.3c0,0-0.1-0.5-0.7-0.7c0,0-1.7,0-3,0c0,0,0.2-1.2,0.3-3.1c0,0,0.4-2.3-1.8-2.3c-2.2,0-2,2.3-2,2.3
		c0.1,1.4,0.3,3.1,0.3,3.1c-1.3,0-3,0-3,0c-0.6,0.2-0.7,0.7-0.7,0.7c0,3.8-0.1,7.5-0.1,11.3c0,1,0.7,1.8,1.6,2.1c0,4.4,0,8.6,0,13
		c-0.5,0.2-1.2,0.4-1.2,1.1c3.1,0,6.3,0,9.4,0H447z"/>
	<path fill="#484748" d="M462.8,876.4c3.1,0,6.3,0,9.4,0c0-0.7-0.7-1-1.2-1.1c0.1-4.3,0-8.6,0-13c0.8-0.3,1.6-1.1,1.6-2.1
		c0-3.7-0.1-7.5-0.1-11.3c0,0-0.1-0.5-0.7-0.7c0,0-1.7,0-3,0c0,0,0.2-1.2,0.3-3.1c0,0,0.4-2.3-1.8-2.3c-2.2,0-2,2.3-2,2.3
		c0.1,1.4,0.3,3.1,0.3,3.1c-1.3,0-3,0-3,0c-0.6,0.2-0.7,0.7-0.7,0.7c0,3.8-0.1,7.5-0.1,11.3c0,1,0.7,1.8,1.6,2.1c0,4.4,0,8.6,0,13
		c-0.5,0.2-1.2,0.4-1.2,1.1c3.1,0,6.3,0,9.4,0H462.8z"/>
	<path fill="#484748" d="M478.7,876.4c3.1,0,6.3,0,9.4,0c0-0.7-0.7-1-1.2-1.1c0-4.3,0-8.6,0-13c0.8-0.3,1.6-1.1,1.6-2.1
		c0-3.7-0.1-7.5-0.1-11.3c0,0-0.1-0.5-0.7-0.7c0,0-1.7,0-3,0c0,0,0.2-1.2,0.3-3.1c0,0,0.4-2.3-1.8-2.3c-2.2,0-2,2.3-2,2.3
		c0.1,1.4,0.3,3.1,0.3,3.1c-1.3,0-3,0-3,0c-0.6,0.2-0.7,0.7-0.7,0.7c0,3.8-0.1,7.5-0.1,11.3c0,1,0.7,1.8,1.6,2.1c0,4.4,0,8.6,0,13
		c-0.5,0.2-1.2,0.4-1.2,1.1c3.1,0,6.3,0,9.4,0H478.7z"/>
	<path fill="#484748" d="M494.5,876.4c3.1,0,6.3,0,9.4,0c0-0.7-0.7-1-1.2-1.1c0-4.3,0-8.6,0-13c0.8-0.3,1.6-1.1,1.6-2.1
		c0-3.7-0.1-7.5-0.1-11.3c0,0-0.1-0.5-0.7-0.7c0,0-1.7,0-3,0c0,0,0.2-1.2,0.3-3.1c0,0,0.4-2.3-1.8-2.3c-2.2,0-2,2.3-2,2.3
		c0.1,1.4,0.3,3.1,0.3,3.1c-1.3,0-3,0-3,0c-0.6,0.2-0.7,0.7-0.7,0.7c0,3.8-0.1,7.5-0.1,11.3c0,1,0.7,1.8,1.6,2.1c0,4.4,0,8.6,0,13
		c-0.5,0.2-1.2,0.4-1.2,1.1c3.1,0,6.3,0,9.4,0H494.5z"/>
	<path fill="#484748" d="M510.3,876.4c3.1,0,6.3,0,9.4,0c0-0.7-0.7-1-1.2-1.1c0-4.3,0-8.6,0-13c0.8-0.3,1.6-1.1,1.6-2.1
		c0-3.7-0.1-7.5-0.1-11.3c0,0-0.1-0.5-0.7-0.7c0,0-1.7,0-3,0c0,0,0.2-1.2,0.3-3.1c0,0,0.4-2.3-1.8-2.3c-2.2,0-2,2.3-2,2.3
		c0.1,1.4,0.3,3.1,0.3,3.1c-1.3,0-3,0-3,0c-0.6,0.2-0.7,0.7-0.7,0.7c0,3.8-0.1,7.5-0.1,11.3c0,1,0.7,1.8,1.6,2.1c0,4.4,0,8.6,0,13
		c-0.5,0.2-1.2,0.4-1.2,1.1c3.1,0,6.3,0,9.4,0H510.3z"/>
	<path fill="#484748" d="M537.2,876.4c3.1,0,6.3,0,9.5,0c0-0.7-0.7-1-1.2-1.1c0-4.3,0-8.6,0-13c0.8-0.3,1.6-1.1,1.6-2.1
		c0-3.7-0.1-7.5-0.1-11.3c0,0-0.1-0.5-0.7-0.7c0,0-1.7,0-3,0c0,0,0.2-1.2,0.3-3.1c0,0,0.4-2.3-1.8-2.3c-2.2,0-2,2.3-2,2.3
		c0.1,1.4,0.3,3.1,0.3,3.1c-1.3,0-3,0-3,0c-0.6,0.2-0.7,0.7-0.7,0.7c0,3.8-0.1,7.5-0.1,11.3c0,1,0.7,1.8,1.6,2.1c0,4.4,0,8.6,0,13
		c-0.5,0.2-1.2,0.4-1.2,1.1c3.1,0,6.3,0,9.4,0H537.2z"/>
	<path fill="#484748" d="M553,876.4c3.1,0,6.3,0,9.4,0c0-0.7-0.7-1-1.2-1.1c0-4.3,0-8.6,0-13c0.8-0.3,1.6-1.1,1.6-2.1
		c0-3.7-0.1-7.5-0.1-11.3c0,0-0.1-0.5-0.7-0.7c0,0-1.7,0-3,0c0,0,0.2-1.2,0.3-3.1c0,0,0.4-2.3-1.8-2.3c-2.2,0-2,2.3-2,2.3
		c0.1,1.4,0.3,3.1,0.3,3.1c-1.3,0-3,0-3,0c-0.6,0.2-0.7,0.7-0.7,0.7c0,3.8-0.1,7.5-0.1,11.3c0,1,0.7,1.8,1.6,2.1c0,4.4,0,8.6,0,13
		c-0.5,0.2-1.2,0.4-1.2,1.1c3.1,0,6.3,0,9.4,0H553z"/>
	<path fill="#484748" d="M568.9,876.4c3.1,0,6.3,0,9.4,0c0-0.7-0.7-1-1.2-1.1c0-4.3,0-8.6,0-13c0.8-0.3,1.6-1.1,1.6-2.1
		c0-3.7-0.1-7.5-0.1-11.3c0,0-0.1-0.5-0.7-0.7c0,0-1.7,0-3,0c0,0,0.2-1.2,0.3-3.1c0,0,0.4-2.3-1.8-2.3c-2.2,0-2,2.3-2,2.3
		c0.1,1.4,0.3,3.1,0.3,3.1c-1.3,0-3,0-3,0c-0.6,0.2-0.7,0.7-0.7,0.7c0,3.8-0.1,7.5-0.1,11.3c0,1,0.7,1.8,1.6,2.1c0,4.4,0,8.6,0,13
		c-0.5,0.2-1.2,0.4-1.2,1.1c3.1,0,6.3,0,9.4,0H568.9z"/>
	<path fill="#484748" d="M584.7,876.4c3.1,0,6.3,0,9.5,0c0-0.7-0.7-1-1.2-1.1c0-4.3,0-8.6,0-13c0.8-0.3,1.6-1.1,1.6-2.1
		c0-3.7-0.1-7.5-0.1-11.3c0,0-0.1-0.5-0.7-0.7c0,0-1.7,0-3,0c0,0,0.2-1.2,0.3-3.1c0,0,0.4-2.3-1.8-2.3c-2.2,0-2,2.3-2,2.3
		c0.1,1.4,0.3,3.1,0.3,3.1c-1.3,0-3,0-3,0c-0.6,0.2-0.7,0.7-0.7,0.7c0,3.8-0.1,7.5-0.1,11.3c0,1,0.7,1.8,1.6,2.1c0,4.4,0,8.6,0,13
		c-0.5,0.2-1.2,0.4-1.2,1.1c3.1,0,6.3,0,9.5,0H584.7z"/>
	<path fill="#484748" d="M600.5,876.4c3.1,0,6.3,0,9.4,0c0-0.7-0.7-1-1.2-1.1c0-4.3,0-8.6,0-13c0.8-0.3,1.6-1.1,1.6-2.1
		c0-3.7-0.1-7.5-0.1-11.3c0,0-0.1-0.5-0.7-0.7c0,0-1.7,0-3,0c0,0,0.2-1.2,0.3-3.1c0,0,0.4-2.3-1.8-2.3c-2.2,0-2,2.3-2,2.3
		c0.1,1.4,0.3,3.1,0.3,3.1c-1.3,0-3,0-3,0c-0.6,0.2-0.7,0.7-0.7,0.7c0,3.8-0.1,7.5-0.1,11.3c0,1,0.7,1.8,1.6,2.1c0,4.4,0,8.6,0,13
		c-0.5,0.2-1.2,0.4-1.2,1.1c3.1,0,6.3,0,9.5,0H600.5z"/>
	<path fill="#484748" d="M94.3,919.5c3.1,0,6.3,0,9.4,0c0-0.7-0.7-1-1.2-1.1c0-4.3,0-8.6,0-13c0.8-0.3,1.6-1.1,1.6-2.1
		c0-3.7-0.1-7.5-0.1-11.3c0,0-0.1-0.5-0.7-0.7c0,0-1.7,0-3,0c0,0,0.2-1.2,0.3-3.1c0,0,0.4-2.3-1.8-2.3c-2.2,0-2,2.3-2,2.3
		c0.1,1.4,0.3,3.1,0.3,3.1c-1.3,0-3,0-3,0c-0.6,0.2-0.7,0.7-0.7,0.7c0,3.8-0.1,7.5-0.1,11.3c0,1,0.7,1.8,1.6,2.1c0,4.4,0,8.7,0,13
		c-0.5,0.2-1.2,0.4-1.2,1.1c3.1,0,6.3,0,9.4,0H94.3z"/>
	<path fill="#484748" d="M110.1,919.5c3.1,0,6.3,0,9.5,0c0-0.7-0.7-1-1.2-1.1c0-4.3,0-8.6,0-13c0.8-0.3,1.6-1.1,1.6-2.1
		c0-3.7-0.1-7.5-0.1-11.3c0,0-0.1-0.5-0.7-0.7c0,0-1.7,0-3,0c0,0,0.2-1.2,0.3-3.1c0,0,0.4-2.3-1.8-2.3c-2.2,0-2,2.3-2,2.3
		c0.1,1.4,0.3,3.1,0.3,3.1c-1.3,0-3,0-3,0c-0.6,0.2-0.7,0.7-0.7,0.7c0,3.8-0.1,7.5-0.1,11.3c0,1,0.7,1.8,1.6,2.1c0,4.4,0,8.7,0,13
		c-0.5,0.2-1.2,0.4-1.2,1.1c3.1,0,6.3,0,9.4,0H110.1z"/>
	<path fill="#484748" d="M126,919.5c3.1,0,6.3,0,9.4,0c0-0.7-0.7-1-1.2-1.1c0-4.3,0-8.6,0-13c0.8-0.3,1.6-1.1,1.6-2.1
		c0-3.7-0.1-7.5-0.1-11.3c0,0-0.1-0.5-0.7-0.7c0,0-1.7,0-3,0c0,0,0.2-1.2,0.3-3.1c0,0,0.4-2.3-1.8-2.3c-2.2,0-2,2.3-2,2.3
		c0.1,1.4,0.3,3.1,0.3,3.1c-1.3,0-3,0-3,0c-0.6,0.2-0.7,0.7-0.7,0.7c0,3.8-0.1,7.5-0.1,11.3c0,1,0.7,1.8,1.6,2.1c0,4.4,0,8.7,0,13
		c-0.5,0.2-1.2,0.4-1.2,1.1c3.1,0,6.3,0,9.4,0H126z"/>
	<path fill="#484748" d="M141.8,919.5c3.1,0,6.3,0,9.4,0c0-0.7-0.7-1-1.2-1.1c0-4.3,0-8.6,0-13c0.8-0.3,1.6-1.1,1.6-2.1
		c0-3.7-0.1-7.5-0.1-11.3c0,0-0.1-0.5-0.7-0.7c0,0-1.7,0-3,0c0,0,0.2-1.2,0.3-3.1c0,0,0.4-2.3-1.8-2.3c-2.2,0-2,2.3-2,2.3
		c0.1,1.4,0.3,3.1,0.3,3.1c-1.3,0-3,0-3,0c-0.6,0.2-0.7,0.7-0.7,0.7c0,3.8-0.1,7.5-0.1,11.3c0,1,0.7,1.8,1.6,2.1c0,4.4,0,8.7,0,13
		c-0.5,0.2-1.2,0.4-1.2,1.1c3.1,0,6.3,0,9.4,0H141.8z"/>
	<path fill="#484748" d="M157.7,919.5c3.1,0,6.3,0,9.4,0c0-0.7-0.7-1-1.2-1.1c0-4.3,0-8.6,0-13c0.8-0.3,1.6-1.1,1.6-2.1
		c0-3.7-0.1-7.5-0.1-11.3c0,0-0.1-0.5-0.7-0.7c0,0-1.7,0-3,0c0,0,0.2-1.2,0.3-3.1c0,0,0.4-2.3-1.8-2.3c-2.2,0-2,2.3-2,2.3
		c0.1,1.4,0.3,3.1,0.3,3.1c-1.3,0-3,0-3,0c-0.6,0.2-0.7,0.7-0.7,0.7c0,3.8-0.1,7.5-0.1,11.3c0,1,0.7,1.8,1.6,2.1c0,4.4,0,8.7,0,13
		c-0.5,0.2-1.2,0.4-1.2,1.1c3.1,0,6.3,0,9.5,0H157.7z"/>
	<path fill="#484748" d="M181.2,919.5c3.1,0,6.3,0,9.4,0c0-0.7-0.7-1-1.2-1.1c0-4.3,0-8.6,0-13c0.8-0.3,1.6-1.1,1.6-2.1
		c0-3.7-0.1-7.5-0.1-11.3c0,0-0.1-0.5-0.7-0.7c0,0-1.7,0-3,0c0,0,0.2-1.2,0.3-3.1c0,0,0.4-2.3-1.8-2.3c-2.2,0-2,2.3-2,2.3
		c0.1,1.4,0.3,3.1,0.3,3.1c-1.3,0-3,0-3,0c-0.6,0.2-0.7,0.7-0.7,0.7c0,3.8-0.1,7.5-0.1,11.3c0,1,0.7,1.8,1.6,2.1c0,4.4,0,8.6,0,13
		c-0.5,0.2-1.2,0.4-1.2,1.1c3.1,0,6.3,0,9.5,0H181.2z"/>
	<path fill="#484748" d="M197,919.5c3.1,0,6.3,0,9.4,0c0-0.7-0.7-1-1.2-1.1c0-4.3,0-8.6,0-13c0.8-0.3,1.6-1.1,1.6-2.1
		c0-3.7-0.1-7.5-0.1-11.3c0,0-0.1-0.5-0.7-0.7c0,0-1.7,0-3,0c0,0,0.2-1.2,0.3-3.1c0,0,0.4-2.3-1.8-2.3c-2.2,0-2,2.3-2,2.3
		c0.1,1.4,0.3,3.1,0.3,3.1c-1.3,0-3,0-3,0c-0.6,0.2-0.7,0.7-0.7,0.7c0,3.8-0.1,7.5-0.1,11.3c0,1,0.7,1.8,1.6,2.1c0,4.4,0,8.6,0,13
		c-0.5,0.2-1.2,0.4-1.2,1.1c3.1,0,6.3,0,9.4,0H197z"/>
	<path fill="#484748" d="M212.9,919.5c3.1,0,6.3,0,9.4,0c0-0.7-0.7-1-1.2-1.1c0-4.3,0-8.6,0-13c0.8-0.3,1.6-1.1,1.6-2.1
		c0-3.7-0.1-7.5-0.1-11.3c0,0-0.1-0.5-0.7-0.7c0,0-1.7,0-3,0c0,0,0.2-1.2,0.3-3.1c0,0,0.4-2.3-1.8-2.3c-2.2,0-2,2.3-2,2.3
		c0.1,1.4,0.3,3.1,0.3,3.1c-1.3,0-3,0-3,0c-0.6,0.2-0.7,0.7-0.7,0.7c0,3.8-0.1,7.5-0.1,11.3c0,1,0.7,1.8,1.6,2.1c0,4.4,0,8.6,0,13
		c-0.5,0.2-1.2,0.4-1.2,1.1c3.1,0,6.3,0,9.4,0H212.9z"/>
	<path fill="#484748" d="M228.7,919.5c3.1,0,6.3,0,9.4,0c0-0.7-0.7-1-1.2-1.1c0-4.3,0-8.6,0-13c0.8-0.3,1.6-1.1,1.6-2.1
		c0-3.7-0.1-7.5-0.1-11.3c0,0-0.1-0.5-0.7-0.7c0,0-1.7,0-3,0c0,0,0.2-1.2,0.3-3.1c0,0,0.4-2.3-1.8-2.3c-2.2,0-2,2.3-2,2.3
		c0.1,1.4,0.3,3.1,0.3,3.1c-1.3,0-3,0-3,0c-0.6,0.2-0.7,0.7-0.7,0.7c0,3.8-0.1,7.5-0.1,11.3c0,1,0.7,1.8,1.6,2.1c0,4.4,0,8.6,0,13
		c-0.5,0.2-1.2,0.4-1.2,1.1c3.1,0,6.3,0,9.5,0H228.7z"/>
	<path fill="#484748" d="M244.5,919.5c3.1,0,6.3,0,9.4,0c0-0.7-0.7-1-1.2-1.1c0-4.3,0-8.6,0-13c0.8-0.3,1.6-1.1,1.6-2.1
		c0-3.7-0.1-7.5-0.1-11.3c0,0-0.1-0.5-0.7-0.7c0,0-1.7,0-3,0c0,0,0.2-1.2,0.3-3.1c0,0,0.4-2.3-1.8-2.3c-2.2,0-2,2.3-2,2.3
		c0.1,1.4,0.3,3.1,0.3,3.1c-1.3,0-3,0-3,0c-0.6,0.2-0.7,0.7-0.7,0.7c0,3.8-0.1,7.5-0.1,11.3c0,1,0.7,1.8,1.6,2.1c0,4.4,0,8.6,0,13
		c-0.5,0.2-1.2,0.4-1.2,1.1c3.1,0,6.3,0,9.4,0H244.5z"/>
	<path fill="#484748" d="M269,919.5c3.1,0,6.3,0,9.4,0c0-0.7-0.7-1-1.2-1.1c0-4.3,0-8.6,0-13c0.8-0.3,1.6-1.1,1.6-2.1
		c0-3.7-0.1-7.5-0.1-11.3c0,0-0.1-0.5-0.7-0.7c0,0-1.7,0-3,0c0,0,0.2-1.2,0.3-3.1c0,0,0.4-2.3-1.8-2.3c-2.2,0-2,2.3-2,2.3
		c0.1,1.4,0.3,3.1,0.3,3.1c-1.3,0-3,0-3,0c-0.6,0.2-0.7,0.7-0.7,0.7c0,3.8-0.1,7.5-0.1,11.3c0,1,0.7,1.8,1.6,2.1c0,4.4,0,8.6,0,13
		c-0.5,0.2-1.2,0.4-1.2,1.1c3.1,0,6.3,0,9.4,0H269z"/>
	<path fill="#484748" d="M284.8,919.5c3.1,0,6.3,0,9.4,0c0-0.7-0.7-1-1.2-1.1c0.1-4.3,0-8.6,0-13c0.8-0.3,1.6-1.1,1.6-2.1
		c0-3.7-0.1-7.5-0.1-11.3c0,0-0.1-0.5-0.7-0.7c0,0-1.7,0-3,0c0,0,0.2-1.2,0.3-3.1c0,0,0.4-2.3-1.8-2.3c-2.2,0-2,2.3-2,2.3
		c0.1,1.4,0.3,3.1,0.3,3.1c-1.3,0-3,0-3,0c-0.6,0.2-0.7,0.7-0.7,0.7c0,3.8-0.1,7.5-0.1,11.3c0,1,0.7,1.8,1.6,2.1c0,4.4,0,8.6,0,13
		c-0.5,0.2-1.2,0.4-1.2,1.1c3.1,0,6.3,0,9.4,0H284.8z"/>
	<path fill="#484748" d="M300.7,919.5c3.1,0,6.3,0,9.4,0c0-0.7-0.7-1-1.2-1.1c0-4.3,0-8.6,0-13c0.8-0.3,1.6-1.1,1.6-2.1
		c0-3.7-0.1-7.5-0.1-11.3c0,0-0.1-0.5-0.7-0.7c0,0-1.7,0-3,0c0,0,0.2-1.2,0.3-3.1c0,0,0.4-2.3-1.8-2.3c-2.2,0-2,2.3-2,2.3
		c0.1,1.4,0.3,3.1,0.3,3.1c-1.3,0-3,0-3,0c-0.6,0.2-0.7,0.7-0.7,0.7c0,3.8-0.1,7.5-0.1,11.3c0,1,0.7,1.8,1.6,2.1c0,4.4,0,8.6,0,13
		c-0.5,0.2-1.2,0.4-1.2,1.1c3.1,0,6.3,0,9.4,0H300.7z"/>
	<path fill="#484748" d="M316.5,919.5c3.1,0,6.3,0,9.4,0c0-0.7-0.7-1-1.2-1.1c0-4.3,0-8.6,0-13c0.8-0.3,1.6-1.1,1.6-2.1
		c0-3.7-0.1-7.5-0.1-11.3c0,0-0.1-0.5-0.7-0.7c0,0-1.7,0-3,0c0,0,0.2-1.2,0.3-3.1c0,0,0.4-2.3-1.8-2.3c-2.2,0-2,2.3-2,2.3
		c0.1,1.4,0.3,3.1,0.3,3.1c-1.3,0-3,0-3,0c-0.6,0.2-0.7,0.7-0.7,0.7c0,3.8-0.1,7.5-0.1,11.3c0,1,0.7,1.8,1.6,2.1c0,4.4,0,8.6,0,13
		c-0.5,0.2-1.2,0.4-1.2,1.1c3.1,0,6.3,0,9.4,0H316.5z"/>
	<path fill="#484748" d="M332.3,919.5c3.1,0,6.3,0,9.4,0c0-0.7-0.7-1-1.2-1.1c0-4.3,0-8.6,0-13c0.8-0.3,1.6-1.1,1.6-2.1
		c0-3.7-0.1-7.5-0.1-11.3c0,0-0.1-0.5-0.7-0.7c0,0-1.7,0-3,0c0,0,0.2-1.2,0.3-3.1c0,0,0.4-2.3-1.8-2.3c-2.2,0-2,2.3-2,2.3
		c0.1,1.4,0.3,3.1,0.3,3.1c-1.3,0-3,0-3,0c-0.6,0.2-0.7,0.7-0.7,0.7c0,3.8-0.1,7.5-0.1,11.3c0,1,0.7,1.8,1.6,2.1c0,4.4,0,8.6,0,13
		c-0.5,0.2-1.2,0.4-1.2,1.1c3.1,0,6.3,0,9.4,0H332.3z"/>
	<path fill="#484748" d="M359.2,919.5c3.1,0,6.3,0,9.5,0c0-0.7-0.7-1-1.2-1.1c0-4.3,0-8.6,0-13c0.8-0.3,1.6-1.1,1.6-2.1
		c0-3.7-0.1-7.5-0.1-11.3c0,0-0.1-0.5-0.7-0.7c0,0-1.7,0-3,0c0,0,0.2-1.2,0.3-3.1c0,0,0.4-2.3-1.8-2.3c-2.2,0-2,2.3-2,2.3
		c0.1,1.4,0.3,3.1,0.3,3.1c-1.3,0-3,0-3,0c-0.6,0.2-0.7,0.7-0.7,0.7c0,3.8-0.1,7.5-0.1,11.3c0,1,0.7,1.8,1.6,2.1c0,4.4,0,8.6,0,13
		c-0.5,0.2-1.2,0.4-1.2,1.1c3.1,0,6.3,0,9.4,0H359.2z"/>
	<path fill="#484748" d="M375,919.5c3.1,0,6.3,0,9.4,0c0-0.7-0.7-1-1.2-1.1c0-4.3,0-8.6,0-13c0.8-0.3,1.6-1.1,1.6-2.1
		c0-3.7-0.1-7.5-0.1-11.3c0,0-0.1-0.5-0.7-0.7c0,0-1.7,0-3,0c0,0,0.2-1.2,0.3-3.1c0,0,0.4-2.3-1.8-2.3c-2.2,0-2,2.3-2,2.3
		c0.1,1.4,0.3,3.1,0.3,3.1c-1.3,0-3,0-3,0c-0.6,0.2-0.7,0.7-0.7,0.7c0,3.8-0.1,7.5-0.1,11.3c0,1,0.7,1.8,1.6,2.1c0,4.4,0,8.6,0,13
		c-0.5,0.2-1.2,0.4-1.2,1.1c3.1,0,6.3,0,9.4,0H375z"/>
	<path fill="#484748" d="M390.9,919.5c3.1,0,6.3,0,9.4,0c0-0.7-0.7-1-1.2-1.1c0-4.3,0-8.6,0-13c0.8-0.3,1.6-1.1,1.6-2.1
		c0-3.7-0.1-7.5-0.1-11.3c0,0-0.1-0.5-0.7-0.7c0,0-1.7,0-3,0c0,0,0.2-1.2,0.3-3.1c0,0,0.4-2.3-1.8-2.3c-2.2,0-2,2.3-2,2.3
		c0.1,1.4,0.3,3.1,0.3,3.1c-1.3,0-3,0-3,0c-0.6,0.2-0.7,0.7-0.7,0.7c0,3.8-0.1,7.5-0.1,11.3c0,1,0.7,1.8,1.6,2.1c0,4.4,0,8.6,0,13
		c-0.5,0.2-1.2,0.4-1.2,1.1c3.1,0,6.3,0,9.4,0H390.9z"/>
	<path fill="#484748" d="M406.7,919.5c3.1,0,6.3,0,9.5,0c0-0.7-0.7-1-1.2-1.1c0-4.3,0-8.6,0-13c0.8-0.3,1.6-1.1,1.6-2.1
		c0-3.7-0.1-7.5-0.1-11.3c0,0-0.1-0.5-0.7-0.7c0,0-1.7,0-3,0c0,0,0.2-1.2,0.3-3.1c0,0,0.4-2.3-1.8-2.3c-2.2,0-2,2.3-2,2.3
		c0.1,1.4,0.3,3.1,0.3,3.1c-1.3,0-3,0-3,0c-0.6,0.2-0.7,0.7-0.7,0.7c0,3.8-0.1,7.5-0.1,11.3c0,1,0.7,1.8,1.6,2.1c0,4.4,0,8.6,0,13
		c-0.5,0.2-1.2,0.4-1.2,1.1c3.1,0,6.3,0,9.5,0H406.7z"/>
	<path fill="#484748" d="M422.5,919.5c3.1,0,6.3,0,9.4,0c0-0.7-0.7-1-1.2-1.1c0-4.3,0-8.6,0-13c0.8-0.3,1.6-1.1,1.6-2.1
		c0-3.7-0.1-7.5-0.1-11.3c0,0-0.1-0.5-0.7-0.7c0,0-1.7,0-3,0c0,0,0.2-1.2,0.3-3.1c0,0,0.4-2.3-1.8-2.3c-2.2,0-2,2.3-2,2.3
		c0.1,1.4,0.3,3.1,0.3,3.1c-1.3,0-3,0-3,0c-0.6,0.2-0.7,0.7-0.7,0.7c0,3.8-0.1,7.5-0.1,11.3c0,1,0.7,1.8,1.6,2.1c0,4.4,0,8.6,0,13
		c-0.5,0.2-1.2,0.4-1.2,1.1c3.1,0,6.3,0,9.5,0H422.5z"/>
	<path fill="#484748" d="M447,919.5c3.1,0,6.3,0,9.4,0c0-0.7-0.7-1-1.2-1.1c0-4.3,0-8.6,0-13c0.8-0.3,1.6-1.1,1.6-2.1
		c0-3.7-0.1-7.5-0.1-11.3c0,0-0.1-0.5-0.7-0.7c0,0-1.7,0-3,0c0,0,0.2-1.2,0.3-3.1c0,0,0.4-2.3-1.8-2.3c-2.2,0-2,2.3-2,2.3
		c0.1,1.4,0.3,3.1,0.3,3.1c-1.3,0-3,0-3,0c-0.6,0.2-0.7,0.7-0.7,0.7c0,3.8-0.1,7.5-0.1,11.3c0,1,0.7,1.8,1.6,2.1c0,4.4,0,8.6,0,13
		c-0.5,0.2-1.2,0.4-1.2,1.1c3.1,0,6.3,0,9.4,0H447z"/>
	<path fill="#484748" d="M462.8,919.5c3.1,0,6.3,0,9.4,0c0-0.7-0.7-1-1.2-1.1c0.1-4.3,0-8.6,0-13c0.8-0.3,1.6-1.1,1.6-2.1
		c0-3.7-0.1-7.5-0.1-11.3c0,0-0.1-0.5-0.7-0.7c0,0-1.7,0-3,0c0,0,0.2-1.2,0.3-3.1c0,0,0.4-2.3-1.8-2.3c-2.2,0-2,2.3-2,2.3
		c0.1,1.4,0.3,3.1,0.3,3.1c-1.3,0-3,0-3,0c-0.6,0.2-0.7,0.7-0.7,0.7c0,3.8-0.1,7.5-0.1,11.3c0,1,0.7,1.8,1.6,2.1c0,4.4,0,8.6,0,13
		c-0.5,0.2-1.2,0.4-1.2,1.1c3.1,0,6.3,0,9.4,0H462.8z"/>
	<path fill="#484748" d="M478.7,919.5c3.1,0,6.3,0,9.4,0c0-0.7-0.7-1-1.2-1.1c0-4.3,0-8.6,0-13c0.8-0.3,1.6-1.1,1.6-2.1
		c0-3.7-0.1-7.5-0.1-11.3c0,0-0.1-0.5-0.7-0.7c0,0-1.7,0-3,0c0,0,0.2-1.2,0.3-3.1c0,0,0.4-2.3-1.8-2.3c-2.2,0-2,2.3-2,2.3
		c0.1,1.4,0.3,3.1,0.3,3.1c-1.3,0-3,0-3,0c-0.6,0.2-0.7,0.7-0.7,0.7c0,3.8-0.1,7.5-0.1,11.3c0,1,0.7,1.8,1.6,2.1c0,4.4,0,8.6,0,13
		c-0.5,0.2-1.2,0.4-1.2,1.1c3.1,0,6.3,0,9.4,0H478.7z"/>
	<path fill="#484748" d="M494.5,919.5c3.1,0,6.3,0,9.4,0c0-0.7-0.7-1-1.2-1.1c0-4.3,0-8.6,0-13c0.8-0.3,1.6-1.1,1.6-2.1
		c0-3.7-0.1-7.5-0.1-11.3c0,0-0.1-0.5-0.7-0.7c0,0-1.7,0-3,0c0,0,0.2-1.2,0.3-3.1c0,0,0.4-2.3-1.8-2.3c-2.2,0-2,2.3-2,2.3
		c0.1,1.4,0.3,3.1,0.3,3.1c-1.3,0-3,0-3,0c-0.6,0.2-0.7,0.7-0.7,0.7c0,3.8-0.1,7.5-0.1,11.3c0,1,0.7,1.8,1.6,2.1c0,4.4,0,8.6,0,13
		c-0.5,0.2-1.2,0.4-1.2,1.1c3.1,0,6.3,0,9.4,0H494.5z"/>
	<path fill="#484748" d="M510.3,919.5c3.1,0,6.3,0,9.4,0c0-0.7-0.7-1-1.2-1.1c0-4.3,0-8.6,0-13c0.8-0.3,1.6-1.1,1.6-2.1
		c0-3.7-0.1-7.5-0.1-11.3c0,0-0.1-0.5-0.7-0.7c0,0-1.7,0-3,0c0,0,0.2-1.2,0.3-3.1c0,0,0.4-2.3-1.8-2.3c-2.2,0-2,2.3-2,2.3
		c0.1,1.4,0.3,3.1,0.3,3.1c-1.3,0-3,0-3,0c-0.6,0.2-0.7,0.7-0.7,0.7c0,3.8-0.1,7.5-0.1,11.3c0,1,0.7,1.8,1.6,2.1c0,4.4,0,8.6,0,13
		c-0.5,0.2-1.2,0.4-1.2,1.1c3.1,0,6.3,0,9.4,0H510.3z"/>
</g>
<g>
	<text transform="matrix(1 0 0 1 92.1104 751.4085)" fill="#64625A" font-family="Arial Narrow" font-weight="700" font-size="14">NON-ESSENTIAL EMPLOYEES</text>
</g>
<text transform="matrix(1 0 0 1 357.791 751.179)" fill="#64625A" font-family="Arial Narrow" font-weight="700" font-size="14">UNEMPLOYED / WELFARE INCOME PAYMENT</text>
<text transform="matrix(1 0 0 1 92.1104 836.4066)" fill="#64625A" font-family="Arial Narrow" font-weight="700" font-size="14">OTHERS (LOOKING AFTER HOME, STUDENTS, CHILDREN, RETIRED...)</text>
<path fill="none" stroke="#FFFFFF" stroke-width="2" stroke-miterlimit="10" stroke-dasharray="5,5" d="M445.3,723.4
	c0,0,0.8-163.4,0-241.6c-0.8-78.2-49.8-39.3-46.2-177.3"/>
<g>
	<polygon fill="#E0E1E1" points="284.2,261.3 284.2,261.3 314,272.3 314,289.2 293.5,289.2 293.5,273.1 274.9,273.1 274.9,289.2 
		254.4,289.2 254.4,272.3 	"/>
	<path fill="#E0E1E1" d="M319.7,287.3v-13.5h21.5v3.2l3.7,0.1c0,0,0.7,0.2,0.7,0.7c0,0.5,0.1,3.2,0.1,3.2h2c0,0,0.6,0.1,0.6,0.5
		c0,0.4,0,5.8,0,5.8h-0.4l-25.8,0L319.7,287.3z"/>
	<circle fill="#E0E1E1" cx="323.9" cy="287.3" r="1.9"/>
	<circle fill="#E0E1E1" cx="342.9" cy="287.3" r="1.9"/>
	<polygon fill="#E0E1E1" points="219.5,261.3 219.5,261.3 249.3,272.3 249.3,289.2 228.8,289.2 228.8,273.1 210.2,273.1 
		210.2,289.2 189.7,289.2 189.7,272.3 	"/>
	<g>
		<path fill="#E0E1E1" d="M423.9,235.9c0,0.7,0,12.4,0,12.4l114.2,0l0-12.4L423.9,235.9z"/>
		<path fill="#E0E1E1" d="M423.9,249.8c0,0.7,0,15,0,15h114.2l0-15L423.9,249.8z"/>
		<path fill="#E0E1E1" d="M423.9,266.3c0,1.4,0,22.9,0,22.9l114.2,0l0-22.8L423.9,266.3z"/>
		<path fill="#E0E1E1" d="M538,266.3c0,0.2,0,3.6,0,3.6l35.7,0l0-3.5H538z"/>
		<path fill="#E0E1E1" d="M569.8,269.8c0,1.1,0,19.1,0,19.1l0.9,0v-19L569.8,269.8z"/>
	</g>
	<rect x="90.2" y="289.3" fill="#E0E1E1" width="651.5" height="22.4"/>
</g>
<rect x="92.2" y="628" fill="#E0E1E1" width="648.3" height="22.4"/>
<line fill="none" stroke="#151415" stroke-width="2" stroke-miterlimit="10" stroke-dasharray="5,5" x1="0" y1="687.4" x2="750" y2="687.4"/>
<g>
	<text transform="matrix(1 0 0 1 23.4736 677.8626)" fill="#3A3A3A" font-family="Arial Narrow" font-style="italic" font-size="16" >frontline</text>
</g>
<rect x="441.9" y="647.9" fill="#E0E1E1" width="7.3" height="5.7"/>
</svg>
